<?xml version="1.0" encoding="UTF-8" standalone="no"?>
<!DOCTYPE svg PUBLIC "-//W3C//DTD SVG 1.0//EN"
 "http://www.w3.org/TR/2001/REC-SVG-20010904/DTD/svg10.dtd" [
 <!ATTLIST svg xmlns:xlink CDATA #FIXED "http://www.w3.org/1999/xlink">
]>
<!-- Generated by dot version 2.8 (Tue Dec  9 22:37:01 UTC 2008)
     For user: (gremy) Jeremie,,, -->
<!-- Title: osg_shape Pages: 1 -->
<svg width="122pt" height="260pt"
 viewBox = "0 0 122 260"
 xmlns="http://www.w3.org/2000/svg" xmlns:xlink="http://www.w3.org/1999/xlink">
<g id="graph0" class="graph" style="font-family:Times-Roman;font-size:14.00;">
<title>osg_shape</title>
<polygon style="fill:white;stroke:white;" points="-2,262 -2,-2 124,-2 124,262 -2,262"/>
<!-- Group -->
<g id="node1" class="node"><title>Group</title>
<ellipse style="fill:none;stroke:black;" cx="61" cy="22" rx="31" ry="18"/>
<text text-anchor="middle" x="61" y="27">Group</text>
</g>
<!-- Geode -->
<g id="node3" class="node"><title>Geode</title>
<ellipse style="fill:none;stroke:black;" cx="61" cy="94" rx="31" ry="18"/>
<text text-anchor="middle" x="61" y="99">Geode</text>
</g>
<!-- Group&#45;&gt;Geode -->
<g id="edge2" class="edge"><title>Group&#45;&gt;Geode</title>
<path style="fill:none;stroke:black;" d="M61,40C61,48 61,57 61,66"/>
<polygon style="fill:black;stroke:black;" points="65,66 61,76 58,66 65,66"/>
</g>
<!-- ShapeDrawable -->
<g id="node4" class="node"><title>ShapeDrawable</title>
<ellipse style="fill:none;stroke:black;" cx="61" cy="166" rx="57" ry="18"/>
<text text-anchor="middle" x="61" y="171">ShapeDrawable</text>
</g>
<!-- Geode&#45;&gt;ShapeDrawable -->
<g id="edge3" class="edge"><title>Geode&#45;&gt;ShapeDrawable</title>
<path style="fill:none;stroke:black;" d="M61,112C61,120 61,129 61,138"/>
<polygon style="fill:black;stroke:black;" points="65,138 61,148 58,138 65,138"/>
</g>
<!-- Box -->
<g id="node5" class="node"><title>Box</title>
<ellipse style="fill:none;stroke:black;" cx="61" cy="238" rx="27" ry="18"/>
<text text-anchor="middle" x="61" y="243">Box</text>
</g>
<!-- ShapeDrawable&#45;&gt;Box -->
<g id="edge4" class="edge"><title>ShapeDrawable&#45;&gt;Box</title>
<path style="fill:none;stroke:black;" d="M61,184C61,192 61,201 61,210"/>
<polygon style="fill:black;stroke:black;" points="65,210 61,220 58,210 65,210"/>
</g>
</g>
</svg>
