<?xml version="1.0" encoding="UTF-8" standalone="no"?>
<!DOCTYPE svg PUBLIC "-//W3C//DTD SVG 1.0//EN"
 "http://www.w3.org/TR/2001/REC-SVG-20010904/DTD/svg10.dtd" [
 <!ATTLIST svg xmlns:xlink CDATA #FIXED "http://www.w3.org/1999/xlink">
]>
<!-- Generated by dot version 2.8 (Tue Dec  9 22:37:01 UTC 2008)
     For user: (gremy) Jeremie,,, -->
<!-- Title: osg_shape Pages: 1 -->
<svg width="172pt" height="332pt"
 viewBox = "0 0 172 332"
 xmlns="http://www.w3.org/2000/svg" xmlns:xlink="http://www.w3.org/1999/xlink">
<g id="graph0" class="graph" style="font-family:Times-Roman;font-size:14.00;">
<title>osg_shape</title>
<polygon style="fill:white;stroke:white;" points="-2,334 -2,-2 174,-2 174,334 -2,334"/>
<!-- Group -->
<g id="node1" class="node"><title>Group</title>
<ellipse style="fill:none;stroke:black;" cx="61" cy="22" rx="31" ry="18"/>
<text text-anchor="middle" x="61" y="27">Group</text>
</g>
<!-- Geode -->
<g id="node3" class="node"><title>Geode</title>
<ellipse style="fill:none;stroke:black;" cx="61" cy="166" rx="31" ry="18"/>
<text text-anchor="middle" x="61" y="171">Geode</text>
</g>
<!-- Group&#45;&gt;Geode -->
<g id="edge2" class="edge"><title>Group&#45;&gt;Geode</title>
<path style="fill:none;stroke:black;" d="M51,39C45,50 38,63 35,76 32,92 32,97 35,112 37,122 41,131 45,140"/>
<polygon style="fill:black;stroke:black;" points="48,139 50,149 42,142 48,139"/>
</g>
<!-- MatrixTransform -->
<g id="node7" class="node"><title>MatrixTransform</title>
<ellipse style="fill:none;stroke:black;" cx="106" cy="94" rx="62" ry="18"/>
<text text-anchor="middle" x="106" y="99">MatrixTransform</text>
</g>
<!-- Group&#45;&gt;MatrixTransform -->
<g id="edge6" class="edge"><title>Group&#45;&gt;MatrixTransform</title>
<path style="fill:none;stroke:black;" d="M72,39C77,47 84,58 90,67"/>
<polygon style="fill:black;stroke:black;" points="93,66 95,76 87,69 93,66"/>
</g>
<!-- ShapeDrawable -->
<g id="node4" class="node"><title>ShapeDrawable</title>
<ellipse style="fill:none;stroke:black;" cx="61" cy="238" rx="57" ry="18"/>
<text text-anchor="middle" x="61" y="243">ShapeDrawable</text>
</g>
<!-- Geode&#45;&gt;ShapeDrawable -->
<g id="edge3" class="edge"><title>Geode&#45;&gt;ShapeDrawable</title>
<path style="fill:none;stroke:black;" d="M61,184C61,192 61,201 61,210"/>
<polygon style="fill:black;stroke:black;" points="65,210 61,220 58,210 65,210"/>
</g>
<!-- Box -->
<g id="node5" class="node"><title>Box</title>
<ellipse style="fill:none;stroke:black;" cx="61" cy="310" rx="27" ry="18"/>
<text text-anchor="middle" x="61" y="315">Box</text>
</g>
<!-- ShapeDrawable&#45;&gt;Box -->
<g id="edge4" class="edge"><title>ShapeDrawable&#45;&gt;Box</title>
<path style="fill:none;stroke:black;" d="M61,256C61,264 61,273 61,282"/>
<polygon style="fill:black;stroke:black;" points="65,282 61,292 58,282 65,282"/>
</g>
<!-- MatrixTransform&#45;&gt;Geode -->
<g id="edge7" class="edge"><title>MatrixTransform&#45;&gt;Geode</title>
<path style="fill:none;stroke:black;" d="M95,112C90,120 83,131 77,140"/>
<polygon style="fill:black;stroke:black;" points="80,142 72,149 74,139 80,142"/>
</g>
</g>
</svg>
