<?xml version="1.0" encoding="UTF-8" standalone="no"?>
<svg xmlns:dc="http://purl.org/dc/elements/1.1/" xmlns:cc="http://creativecommons.org/ns#" xmlns:rdf="http://www.w3.org/1999/02/22-rdf-syntax-ns#" xmlns:svg="http://www.w3.org/2000/svg" xmlns="http://www.w3.org/2000/svg" xmlns:sodipodi="http://sodipodi.sourceforge.net/DTD/sodipodi-0.dtd" xmlns:inkscape="http://www.inkscape.org/namespaces/inkscape" version="1.1" x="0" y="0" width="528.04382" height="454.41199" viewBox="0 0 528.04382 454.41199" id="svg866" sodipodi:docname="toy_robot-0030194bkjxdh.svg" inkscape:version="1.0.1 (c497b03c, 2020-09-10)">
  <metadata id="metadata872">
    <rdf:RDF>
      <cc:Work rdf:about="">
        <dc:format>image/svg+xml</dc:format>
        <dc:type rdf:resource="http://purl.org/dc/dcmitype/StillImage"/>
        <dc:title/>
      </cc:Work>
    </rdf:RDF>
  </metadata>
  <defs id="defs870"/>
  <sodipodi:namedview pagecolor="#ffffff" bordercolor="#666666" borderopacity="1" objecttolerance="10" gridtolerance="10" guidetolerance="10" inkscape:pageopacity="0" inkscape:pageshadow="2" inkscape:window-width="1824" inkscape:window-height="845" id="namedview868" showgrid="false" fit-margin-top="0" fit-margin-left="0" fit-margin-right="0" fit-margin-bottom="0" inkscape:zoom="0.9472" inkscape:cx="259.65892" inkscape:cy="190.366" inkscape:window-x="0" inkscape:window-y="23" inkscape:window-maximized="0" inkscape:current-layer="svg866"/>
  <g id="Layer_1" transform="translate(-52.841082,-122.134)">
    <path d="m 171.992,126.884 h 289.75 v 194.75 h -289.75 z" fill="#a5a7a6" id="path833"/>
    <path d="m 86.878,268.597 c 0,0 -0.787,38 25.338,38 26.125,0 10.287,-44.338 10.287,-44.338 l 26.927,-7.125 c 0,0 25.323,70.463 -26.927,76.787 -51.961,6.293 -57.787,-20.574 -64.912,-58.574 l 29.287,-4.75" fill="#e26466" id="path835"/>
    <path d="m 546.849,268.597 c -0.001,0 0.786,38 -25.339,38 -26.125,0 -10.286,-44.338 -10.286,-44.338 l -26.919,-7.125 c 0,0 -25.331,70.463 26.919,76.787 51.96,6.293 57.786,-20.574 64.911,-58.574 l -29.286,-4.75" fill="#e26466" id="path837"/>
    <path d="m 188.224,571.796 c 0,0 -15.044,-31.662 12.661,-38.787 27.714,-7.125 96.589,-6.338 88.67,37.213 l -101.331,1.574" fill="#e26466" id="path839"/>
    <path d="m 443.128,571.796 c 0,0 15.052,-31.662 -12.662,-38.787 -27.713,-7.125 -96.588,-6.338 -88.661,37.213 l 101.323,1.574" fill="#e26466" id="path841"/>
    <path d="m 291.93,201.296 c 0,23.609 -19.141,42.75 -42.75,42.75 -23.617,0 -42.75,-19.141 -42.75,-42.75 0,-23.609 19.133,-42.75 42.75,-42.75 23.609,0 42.75,19.141 42.75,42.75" fill="#ece95d" id="path843"/>
    <path d="m 414.635,201.296 c 0,23.609 -19.133,42.75 -42.75,42.75 -23.609,0 -42.75,-19.141 -42.75,-42.75 0,-23.609 19.141,-42.75 42.75,-42.75 23.617,0 42.75,19.141 42.75,42.75" fill="#ece95d" id="path845"/>
    <path d="m 240.474,268.597 h 145.662 v 29.287 H 240.474 Z" fill="#fffffe" id="path847"/>
    <path d="m 242.849,320.833 v 118.75 H 389.305 V 323.207 l -146.456,-2.374" fill="#a5a7a6" id="path849"/>
    <path d="m 172.385,166.457 v 96.589 c 0,0 -32.455,-31.662 -30.875,-55.412 1.589,-23.75 30.875,-41.177 30.875,-41.177" fill="#ed9f4d" id="path851"/>
    <path d="m 460.555,167.259 4.75,87.875 c 0,0 24.544,-15.051 24.544,-48.301 0,-33.251 -29.294,-39.574 -29.294,-39.574" fill="#ed9f4d" id="path853"/>
    <path d="m 242.055,325.583 c 0,0 -32.456,15.845 -49.081,15.051 -16.625,-0.801 -45.125,-19.801 -45.125,-19.801 l -39.589,13.463 c 0,0 26.118,45.132 72.045,44.338 45.919,-0.801 62.544,-12.677 62.544,-12.677 l -0.794,-40.374" fill="#d4d3cf" id="path855"/>
    <path d="m 259.474,441.958 c -1.589,2.375 -13.464,85.5 -13.464,85.5 l 35.625,11.088 15.839,-96.588 h -38" fill="#d4d3cf" id="path857"/>
    <path d="m 388.117,325.583 c 0,0 33.643,22.176 50.268,21.375 16.625,-0.795 47.901,-24.137 47.901,-24.137 l 35.618,11.475 c 0,0 -26.118,45.132 -72.037,44.338 -45.927,-0.801 -62.552,-12.677 -62.552,-12.677 l 0.802,-40.374" fill="#d4d3cf" id="path859"/>
    <path d="m 370.69,441.958 c 1.589,2.375 13.464,85.5 13.464,85.5 l -35.625,11.088 -15.839,-96.588 h 38" fill="#d4d3cf" id="path861"/>
    <path d="m 171.992,126.884 h 289.75 v 194.75 h -289.75 z m -3.562,35.625 c 0,0 -58.188,45.125 2.375,96.187 M 462.93,164.884 c 0,0 54.625,42.75 2.375,91.437 M 86.878,268.597 c 0,0 -0.787,38 25.338,38 26.125,0 10.287,-44.338 10.287,-44.338 l 26.927,-7.125 c 0,0 25.323,70.463 -26.927,76.787 -51.961,6.293 -57.787,-20.574 -64.912,-58.574 z m 25.346,66.486 c 0,0 37.206,68.875 129.029,33.25 m 305.596,-99.736 c -0.001,0 0.786,38 -25.339,38 -26.125,0 -10.286,-44.338 -10.286,-44.338 l -26.919,-7.125 c 0,0 -25.331,70.463 26.919,76.787 51.96,6.293 57.786,-20.574 64.911,-58.574 z m -25.346,66.486 c 0,0 -37.198,68.875 -129.029,33.25 m 96.581,-45.912 c 0,0 -53.831,53.051 -98.563,2.775 V 440.384 H 242.055 V 325.196 c -60.177,36.026 -93.427,-4.363 -93.427,-4.363 m 39.596,250.963 c 0,0 -15.044,-31.662 12.661,-38.787 27.714,-7.125 96.589,-6.338 88.67,37.213 z m 106.875,-129.037 -13.464,99.75 m -22.161,-98.963 -12.669,82.338 m 196.323,45.912 c 0,0 15.052,-31.662 -12.662,-38.787 -27.713,-7.125 -96.588,-6.338 -88.661,37.213 z m -106.875,-129.037 13.463,99.75 m 22.162,-98.963 12.677,82.338 M 291.93,201.296 c 0,23.609 -19.141,42.75 -42.75,42.75 -23.617,0 -42.75,-19.141 -42.75,-42.75 0,-23.609 19.133,-42.75 42.75,-42.75 23.609,0 42.75,19.141 42.75,42.75 z m 122.705,0 c 0,23.609 -19.133,42.75 -42.75,42.75 -23.609,0 -42.75,-19.141 -42.75,-42.75 0,-23.609 19.141,-42.75 42.75,-42.75 23.617,0 42.75,19.141 42.75,42.75 z m -174.161,67.301 h 145.662 v 29.287 H 240.474 Z m 72.036,0.787 v 24.537 m -41.161,-22.162 v 22.162 m 79.956,-22.162 v 26.125" fill-opacity="0" stroke="#503422" stroke-width="9.5" stroke-linecap="round" stroke-linejoin="round" id="path863"/>
  </g>
</svg>