  0
SECTION
  2
BLOCKS
  0
ENDSEC
  0
SECTION
  2
ENTITIES
  0
LINE
  8
0
 10
-10
 11
-9.98
 20
60
 21
60.628
  0
LINE
  8
0
 10
-9.98
 11
-9.921
 20
60.628
 21
61.253
  0
LINE
  8
0
 10
-9.921
 11
-9.823
 20
61.253
 21
61.874
  0
LINE
  8
0
 10
-9.823
 11
-9.686
 20
61.874
 21
62.487
  0
LINE
  8
0
 10
-9.686
 11
-9.511
 20
62.487
 21
63.09
  0
LINE
  8
0
 10
-9.511
 11
-9.298
 20
63.09
 21
63.681
  0
LINE
  8
0
 10
-9.298
 11
-9.048
 20
63.681
 21
64.258
  0
LINE
  8
0
 10
-9.048
 11
-8.763
 20
64.258
 21
64.818
  0
LINE
  8
0
 10
-8.763
 11
-8.443
 20
64.818
 21
65.358
  0
LINE
  8
0
 10
-8.443
 11
-8.09
 20
65.358
 21
65.878
  0
LINE
  8
0
 10
-8.09
 11
-7.705
 20
65.878
 21
66.374
  0
LINE
  8
0
 10
-7.705
 11
-7.29
 20
66.374
 21
66.845
  0
LINE
  8
0
 10
-7.29
 11
-6.845
 20
66.845
 21
67.29
  0
LINE
  8
0
 10
-6.845
 11
-6.374
 20
67.29
 21
67.705
  0
LINE
  8
0
 10
-6.374
 11
-5.878
 20
67.705
 21
68.09
  0
LINE
  8
0
 10
-5.878
 11
-5.358
 20
68.09
 21
68.443
  0
LINE
  8
0
 10
-5.358
 11
-4.818
 20
68.443
 21
68.763
  0
LINE
  8
0
 10
-4.818
 11
-4.258
 20
68.763
 21
69.048
  0
LINE
  8
0
 10
-4.258
 11
-3.681
 20
69.048
 21
69.298
  0
LINE
  8
0
 10
-3.681
 11
-3.09
 20
69.298
 21
69.511
  0
LINE
  8
0
 10
-3.09
 11
-2.487
 20
69.511
 21
69.686
  0
LINE
  8
0
 10
-2.487
 11
-1.874
 20
69.686
 21
69.823
  0
LINE
  8
0
 10
-1.874
 11
-1.253
 20
69.823
 21
69.921
  0
LINE
  8
0
 10
-1.253
 11
-0.628
 20
69.921
 21
69.98
  0
LINE
  8
0
 10
-0.628
 11
0
 20
69.98
 21
70
  0
LINE
  8
0
 10
0
 11
0.628
 20
70
 21
69.98
  0
LINE
  8
0
 10
0.628
 11
1.253
 20
69.98
 21
69.921
  0
LINE
  8
0
 10
1.253
 11
1.874
 20
69.921
 21
69.823
  0
LINE
  8
0
 10
1.874
 11
2.487
 20
69.823
 21
69.686
  0
LINE
  8
0
 10
2.487
 11
3.09
 20
69.686
 21
69.511
  0
LINE
  8
0
 10
3.09
 11
3.681
 20
69.511
 21
69.298
  0
LINE
  8
0
 10
3.681
 11
4.258
 20
69.298
 21
69.048
  0
LINE
  8
0
 10
4.258
 11
4.818
 20
69.048
 21
68.763
  0
LINE
  8
0
 10
4.818
 11
5.358
 20
68.763
 21
68.443
  0
LINE
  8
0
 10
5.358
 11
5.878
 20
68.443
 21
68.09
  0
LINE
  8
0
 10
5.878
 11
6.374
 20
68.09
 21
67.705
  0
LINE
  8
0
 10
6.374
 11
6.845
 20
67.705
 21
67.29
  0
LINE
  8
0
 10
6.845
 11
7.29
 20
67.29
 21
66.845
  0
LINE
  8
0
 10
7.29
 11
7.705
 20
66.845
 21
66.374
  0
LINE
  8
0
 10
7.705
 11
8.09
 20
66.374
 21
65.878
  0
LINE
  8
0
 10
8.09
 11
8.443
 20
65.878
 21
65.358
  0
LINE
  8
0
 10
8.443
 11
8.763
 20
65.358
 21
64.818
  0
LINE
  8
0
 10
8.763
 11
9.048
 20
64.818
 21
64.258
  0
LINE
  8
0
 10
9.048
 11
9.298
 20
64.258
 21
63.681
  0
LINE
  8
0
 10
9.298
 11
9.511
 20
63.681
 21
63.09
  0
LINE
  8
0
 10
9.511
 11
9.686
 20
63.09
 21
62.487
  0
LINE
  8
0
 10
9.686
 11
9.823
 20
62.487
 21
61.874
  0
LINE
  8
0
 10
9.823
 11
9.921
 20
61.874
 21
61.253
  0
LINE
  8
0
 10
9.921
 11
9.98
 20
61.253
 21
60.628
  0
LINE
  8
0
 10
9.98
 11
10
 20
60.628
 21
60
  0
LINE
  8
0
 10
10
 11
9.98
 20
60
 21
59.372
  0
LINE
  8
0
 10
9.98
 11
9.921
 20
59.372
 21
58.747
  0
LINE
  8
0
 10
9.921
 11
9.823
 20
58.747
 21
58.126
  0
LINE
  8
0
 10
9.823
 11
9.686
 20
58.126
 21
57.513
  0
LINE
  8
0
 10
9.686
 11
9.511
 20
57.513
 21
56.91
  0
LINE
  8
0
 10
9.511
 11
9.298
 20
56.91
 21
56.319
  0
LINE
  8
0
 10
9.298
 11
9.048
 20
56.319
 21
55.742
  0
LINE
  8
0
 10
9.048
 11
8.763
 20
55.742
 21
55.182
  0
LINE
  8
0
 10
8.763
 11
8.443
 20
55.182
 21
54.642
  0
LINE
  8
0
 10
8.443
 11
8.09
 20
54.642
 21
54.122
  0
LINE
  8
0
 10
8.09
 11
7.705
 20
54.122
 21
53.626
  0
LINE
  8
0
 10
7.705
 11
7.29
 20
53.626
 21
53.155
  0
LINE
  8
0
 10
7.29
 11
6.845
 20
53.155
 21
52.71
  0
LINE
  8
0
 10
6.845
 11
6.374
 20
52.71
 21
52.295
  0
LINE
  8
0
 10
6.374
 11
5.878
 20
52.295
 21
51.91
  0
LINE
  8
0
 10
5.878
 11
5.358
 20
51.91
 21
51.557
  0
LINE
  8
0
 10
5.358
 11
4.818
 20
51.557
 21
51.237
  0
LINE
  8
0
 10
4.818
 11
4.258
 20
51.237
 21
50.952
  0
LINE
  8
0
 10
4.258
 11
3.681
 20
50.952
 21
50.702
  0
LINE
  8
0
 10
3.681
 11
3.09
 20
50.702
 21
50.489
  0
LINE
  8
0
 10
3.09
 11
2.487
 20
50.489
 21
50.314
  0
LINE
  8
0
 10
2.487
 11
1.874
 20
50.314
 21
50.177
  0
LINE
  8
0
 10
1.874
 11
1.253
 20
50.177
 21
50.079
  0
LINE
  8
0
 10
1.253
 11
0.628
 20
50.079
 21
50.02
  0
LINE
  8
0
 10
0.628
 11
0
 20
50.02
 21
50
  0
LINE
  8
0
 10
0
 11
-0.628
 20
50
 21
50.02
  0
LINE
  8
0
 10
-0.628
 11
-1.253
 20
50.02
 21
50.079
  0
LINE
  8
0
 10
-1.253
 11
-1.874
 20
50.079
 21
50.177
  0
LINE
  8
0
 10
-1.874
 11
-2.487
 20
50.177
 21
50.314
  0
LINE
  8
0
 10
-2.487
 11
-3.09
 20
50.314
 21
50.489
  0
LINE
  8
0
 10
-3.09
 11
-3.681
 20
50.489
 21
50.702
  0
LINE
  8
0
 10
-3.681
 11
-4.258
 20
50.702
 21
50.952
  0
LINE
  8
0
 10
-4.258
 11
-4.818
 20
50.952
 21
51.237
  0
LINE
  8
0
 10
-4.818
 11
-5.358
 20
51.237
 21
51.557
  0
LINE
  8
0
 10
-5.358
 11
-5.878
 20
51.557
 21
51.91
  0
LINE
  8
0
 10
-5.878
 11
-6.374
 20
51.91
 21
52.295
  0
LINE
  8
0
 10
-6.374
 11
-6.845
 20
52.295
 21
52.71
  0
LINE
  8
0
 10
-6.845
 11
-7.29
 20
52.71
 21
53.155
  0
LINE
  8
0
 10
-7.29
 11
-7.705
 20
53.155
 21
53.626
  0
LINE
  8
0
 10
-7.705
 11
-8.09
 20
53.626
 21
54.122
  0
LINE
  8
0
 10
-8.09
 11
-8.443
 20
54.122
 21
54.642
  0
LINE
  8
0
 10
-8.443
 11
-8.763
 20
54.642
 21
55.182
  0
LINE
  8
0
 10
-8.763
 11
-9.048
 20
55.182
 21
55.742
  0
LINE
  8
0
 10
-9.048
 11
-9.298
 20
55.742
 21
56.319
  0
LINE
  8
0
 10
-9.298
 11
-9.511
 20
56.319
 21
56.91
  0
LINE
  8
0
 10
-9.511
 11
-9.686
 20
56.91
 21
57.513
  0
LINE
  8
0
 10
-9.686
 11
-9.823
 20
57.513
 21
58.126
  0
LINE
  8
0
 10
-9.823
 11
-9.921
 20
58.126
 21
58.747
  0
LINE
  8
0
 10
-9.921
 11
-9.98
 20
58.747
 21
59.372
  0
LINE
  8
0
 10
-9.98
 11
-10
 20
59.372
 21
60
  0
LINE
  8
0
 10
-10
 11
0
 20
90
 21
85
  0
LINE
  8
0
 10
0
 11
10
 20
85
 21
90
  0
LINE
  8
0
 10
10
 11
0
 20
90
 21
80
  0
LINE
  8
0
 10
0
 11
-10
 20
80
 21
90
  0
LINE
  8
0
 10
-5
 11
-5
 20
-5
 21
5
  0
LINE
  8
0
 10
-5
 11
5
 20
5
 21
5
  0
LINE
  8
0
 10
5
 11
5
 20
5
 21
-5
  0
LINE
  8
0
 10
5
 11
-5
 20
-5
 21
-5
  0
LINE
  8
0
 10
-5
 11
-4.99
 20
40
 21
40.314
  0
LINE
  8
0
 10
-4.99
 11
-4.961
 20
40.314
 21
40.627
  0
LINE
  8
0
 10
-4.961
 11
-4.911
 20
40.627
 21
40.937
  0
LINE
  8
0
 10
-4.911
 11
-4.843
 20
40.937
 21
41.243
  0
LINE
  8
0
 10
-4.843
 11
-4.755
 20
41.243
 21
41.545
  0
LINE
  8
0
 10
-4.755
 11
-4.649
 20
41.545
 21
41.841
  0
LINE
  8
0
 10
-4.649
 11
-4.524
 20
41.841
 21
42.129
  0
LINE
  8
0
 10
-4.524
 11
-4.382
 20
42.129
 21
42.409
  0
LINE
  8
0
 10
-4.382
 11
-4.222
 20
42.409
 21
42.679
  0
LINE
  8
0
 10
-4.222
 11
-4.045
 20
42.679
 21
42.939
  0
LINE
  8
0
 10
-4.045
 11
-3.853
 20
42.939
 21
43.187
  0
LINE
  8
0
 10
-3.853
 11
-3.645
 20
43.187
 21
43.423
  0
LINE
  8
0
 10
-3.645
 11
-3.423
 20
43.423
 21
43.645
  0
LINE
  8
0
 10
-3.423
 11
-3.187
 20
43.645
 21
43.853
  0
LINE
  8
0
 10
-3.187
 11
-2.939
 20
43.853
 21
44.045
  0
LINE
  8
0
 10
-2.939
 11
-2.679
 20
44.045
 21
44.222
  0
LINE
  8
0
 10
-2.679
 11
-2.409
 20
44.222
 21
44.382
  0
LINE
  8
0
 10
-2.409
 11
-2.129
 20
44.382
 21
44.524
  0
LINE
  8
0
 10
-2.129
 11
-1.841
 20
44.524
 21
44.649
  0
LINE
  8
0
 10
-1.841
 11
-1.545
 20
44.649
 21
44.755
  0
LINE
  8
0
 10
-1.545
 11
-1.243
 20
44.755
 21
44.843
  0
LINE
  8
0
 10
-1.243
 11
-0.937
 20
44.843
 21
44.911
  0
LINE
  8
0
 10
-0.937
 11
-0.627
 20
44.911
 21
44.961
  0
LINE
  8
0
 10
-0.627
 11
-0.314
 20
44.961
 21
44.99
  0
LINE
  8
0
 10
-0.314
 11
0
 20
44.99
 21
45
  0
LINE
  8
0
 10
0
 11
0.314
 20
45
 21
44.99
  0
LINE
  8
0
 10
0.314
 11
0.627
 20
44.99
 21
44.961
  0
LINE
  8
0
 10
0.627
 11
0.937
 20
44.961
 21
44.911
  0
LINE
  8
0
 10
0.937
 11
1.243
 20
44.911
 21
44.843
  0
LINE
  8
0
 10
1.243
 11
1.545
 20
44.843
 21
44.755
  0
LINE
  8
0
 10
1.545
 11
1.841
 20
44.755
 21
44.649
  0
LINE
  8
0
 10
1.841
 11
2.129
 20
44.649
 21
44.524
  0
LINE
  8
0
 10
2.129
 11
2.409
 20
44.524
 21
44.382
  0
LINE
  8
0
 10
2.409
 11
2.679
 20
44.382
 21
44.222
  0
LINE
  8
0
 10
2.679
 11
2.939
 20
44.222
 21
44.045
  0
LINE
  8
0
 10
2.939
 11
3.187
 20
44.045
 21
43.853
  0
LINE
  8
0
 10
3.187
 11
3.423
 20
43.853
 21
43.645
  0
LINE
  8
0
 10
3.423
 11
3.645
 20
43.645
 21
43.423
  0
LINE
  8
0
 10
3.645
 11
3.853
 20
43.423
 21
43.187
  0
LINE
  8
0
 10
3.853
 11
4.045
 20
43.187
 21
42.939
  0
LINE
  8
0
 10
4.045
 11
4.222
 20
42.939
 21
42.679
  0
LINE
  8
0
 10
4.222
 11
4.382
 20
42.679
 21
42.409
  0
LINE
  8
0
 10
4.382
 11
4.524
 20
42.409
 21
42.129
  0
LINE
  8
0
 10
4.524
 11
4.649
 20
42.129
 21
41.841
  0
LINE
  8
0
 10
4.649
 11
4.755
 20
41.841
 21
41.545
  0
LINE
  8
0
 10
4.755
 11
4.843
 20
41.545
 21
41.243
  0
LINE
  8
0
 10
4.843
 11
4.911
 20
41.243
 21
40.937
  0
LINE
  8
0
 10
4.911
 11
4.961
 20
40.937
 21
40.627
  0
LINE
  8
0
 10
4.961
 11
4.99
 20
40.627
 21
40.314
  0
LINE
  8
0
 10
4.99
 11
5
 20
40.314
 21
40
  0
LINE
  8
0
 10
5
 11
4.99
 20
40
 21
39.686
  0
LINE
  8
0
 10
4.99
 11
4.961
 20
39.686
 21
39.373
  0
LINE
  8
0
 10
4.961
 11
4.911
 20
39.373
 21
39.063
  0
LINE
  8
0
 10
4.911
 11
4.843
 20
39.063
 21
38.757
  0
LINE
  8
0
 10
4.843
 11
4.755
 20
38.757
 21
38.455
  0
LINE
  8
0
 10
4.755
 11
4.649
 20
38.455
 21
38.159
  0
LINE
  8
0
 10
4.649
 11
4.524
 20
38.159
 21
37.871
  0
LINE
  8
0
 10
4.524
 11
4.382
 20
37.871
 21
37.591
  0
LINE
  8
0
 10
4.382
 11
4.222
 20
37.591
 21
37.321
  0
LINE
  8
0
 10
4.222
 11
4.045
 20
37.321
 21
37.061
  0
LINE
  8
0
 10
4.045
 11
3.853
 20
37.061
 21
36.813
  0
LINE
  8
0
 10
3.853
 11
3.645
 20
36.813
 21
36.577
  0
LINE
  8
0
 10
3.645
 11
3.423
 20
36.577
 21
36.355
  0
LINE
  8
0
 10
3.423
 11
3.187
 20
36.355
 21
36.147
  0
LINE
  8
0
 10
3.187
 11
2.939
 20
36.147
 21
35.955
  0
LINE
  8
0
 10
2.939
 11
2.679
 20
35.955
 21
35.778
  0
LINE
  8
0
 10
2.679
 11
2.409
 20
35.778
 21
35.618
  0
LINE
  8
0
 10
2.409
 11
2.129
 20
35.618
 21
35.476
  0
LINE
  8
0
 10
2.129
 11
1.841
 20
35.476
 21
35.351
  0
LINE
  8
0
 10
1.841
 11
1.545
 20
35.351
 21
35.245
  0
LINE
  8
0
 10
1.545
 11
1.243
 20
35.245
 21
35.157
  0
LINE
  8
0
 10
1.243
 11
0.937
 20
35.157
 21
35.089
  0
LINE
  8
0
 10
0.937
 11
0.627
 20
35.089
 21
35.039
  0
LINE
  8
0
 10
0.627
 11
0.314
 20
35.039
 21
35.01
  0
LINE
  8
0
 10
0.314
 11
0
 20
35.01
 21
35
  0
LINE
  8
0
 10
0
 11
-0.314
 20
35
 21
35.01
  0
LINE
  8
0
 10
-0.314
 11
-0.627
 20
35.01
 21
35.039
  0
LINE
  8
0
 10
-0.627
 11
-0.937
 20
35.039
 21
35.089
  0
LINE
  8
0
 10
-0.937
 11
-1.243
 20
35.089
 21
35.157
  0
LINE
  8
0
 10
-1.243
 11
-1.545
 20
35.157
 21
35.245
  0
LINE
  8
0
 10
-1.545
 11
-1.841
 20
35.245
 21
35.351
  0
LINE
  8
0
 10
-1.841
 11
-2.129
 20
35.351
 21
35.476
  0
LINE
  8
0
 10
-2.129
 11
-2.409
 20
35.476
 21
35.618
  0
LINE
  8
0
 10
-2.409
 11
-2.679
 20
35.618
 21
35.778
  0
LINE
  8
0
 10
-2.679
 11
-2.939
 20
35.778
 21
35.955
  0
LINE
  8
0
 10
-2.939
 11
-3.187
 20
35.955
 21
36.147
  0
LINE
  8
0
 10
-3.187
 11
-3.423
 20
36.147
 21
36.355
  0
LINE
  8
0
 10
-3.423
 11
-3.645
 20
36.355
 21
36.577
  0
LINE
  8
0
 10
-3.645
 11
-3.853
 20
36.577
 21
36.813
  0
LINE
  8
0
 10
-3.853
 11
-4.045
 20
36.813
 21
37.061
  0
LINE
  8
0
 10
-4.045
 11
-4.222
 20
37.061
 21
37.321
  0
LINE
  8
0
 10
-4.222
 11
-4.382
 20
37.321
 21
37.591
  0
LINE
  8
0
 10
-4.382
 11
-4.524
 20
37.591
 21
37.871
  0
LINE
  8
0
 10
-4.524
 11
-4.649
 20
37.871
 21
38.159
  0
LINE
  8
0
 10
-4.649
 11
-4.755
 20
38.159
 21
38.455
  0
LINE
  8
0
 10
-4.755
 11
-4.843
 20
38.455
 21
38.757
  0
LINE
  8
0
 10
-4.843
 11
-4.911
 20
38.757
 21
39.063
  0
LINE
  8
0
 10
-4.911
 11
-4.961
 20
39.063
 21
39.373
  0
LINE
  8
0
 10
-4.961
 11
-4.99
 20
39.373
 21
39.686
  0
LINE
  8
0
 10
-4.99
 11
-5
 20
39.686
 21
40
  0
LINE
  8
0
 10
-3.5
 11
-3.5
 20
12.5
 21
27.5
  0
LINE
  8
0
 10
-3.5
 11
3.5
 20
27.5
 21
27.5
  0
LINE
  8
0
 10
3.5
 11
3.5
 20
27.5
 21
12.5
  0
LINE
  8
0
 10
3.5
 11
-3.5
 20
12.5
 21
12.5
  0
ENDSEC
  0
SECTION
  2
OBJECTS
  0
DICTIONARY
  0
ENDSEC
  0
EOF
