  0
SECTION
  2
BLOCKS
  0
ENDSEC
  0
SECTION
  2
ENTITIES
  0
LINE
  8
0
 10
-10
 11
-9.781
 20
0
 21
2.079
  0
LINE
  8
0
 10
-9.781
 11
-9.135
 20
2.079
 21
4.067
  0
LINE
  8
0
 10
-9.135
 11
-8.09
 20
4.067
 21
5.878
  0
LINE
  8
0
 10
-8.09
 11
-6.691
 20
5.878
 21
7.431
  0
LINE
  8
0
 10
-6.691
 11
-5
 20
7.431
 21
8.66
  0
LINE
  8
0
 10
-5
 11
10
 20
8.66
 21
18.66
  0
LINE
  8
0
 10
10
 11
11.91
 20
18.66
 21
19.511
  0
LINE
  8
0
 10
11.91
 11
13.955
 20
19.511
 21
19.945
  0
LINE
  8
0
 10
13.955
 11
16.045
 20
19.945
 21
19.945
  0
LINE
  8
0
 10
16.045
 11
18.09
 20
19.945
 21
19.511
  0
LINE
  8
0
 10
18.09
 11
20
 20
19.511
 21
18.66
  0
LINE
  8
0
 10
20
 11
21.691
 20
18.66
 21
17.431
  0
LINE
  8
0
 10
21.691
 11
23.09
 20
17.431
 21
15.878
  0
LINE
  8
0
 10
23.09
 11
24.135
 20
15.878
 21
14.067
  0
LINE
  8
0
 10
24.135
 11
24.781
 20
14.067
 21
12.079
  0
LINE
  8
0
 10
24.781
 11
25
 20
12.079
 21
10
  0
LINE
  8
0
 10
25
 11
24.781
 20
10
 21
7.921
  0
LINE
  8
0
 10
24.781
 11
24.135
 20
7.921
 21
5.933
  0
LINE
  8
0
 10
24.135
 11
23.09
 20
5.933
 21
4.122
  0
LINE
  8
0
 10
23.09
 11
21.691
 20
4.122
 21
2.569
  0
LINE
  8
0
 10
21.691
 11
20
 20
2.569
 21
1.34
  0
LINE
  8
0
 10
20
 11
5
 20
1.34
 21
-8.66
  0
LINE
  8
0
 10
5
 11
3.09
 20
-8.66
 21
-9.511
  0
LINE
  8
0
 10
3.09
 11
1.045
 20
-9.511
 21
-9.945
  0
LINE
  8
0
 10
1.045
 11
-1.045
 20
-9.945
 21
-9.945
  0
LINE
  8
0
 10
-1.045
 11
-3.09
 20
-9.945
 21
-9.511
  0
LINE
  8
0
 10
-3.09
 11
-5
 20
-9.511
 21
-8.66
  0
LINE
  8
0
 10
-5
 11
-6.691
 20
-8.66
 21
-7.431
  0
LINE
  8
0
 10
-6.691
 11
-8.09
 20
-7.431
 21
-5.878
  0
LINE
  8
0
 10
-8.09
 11
-9.135
 20
-5.878
 21
-4.067
  0
LINE
  8
0
 10
-9.135
 11
-9.781
 20
-4.067
 21
-2.079
  0
LINE
  8
0
 10
-9.781
 11
-10
 20
-2.079
 21
0
  0
ENDSEC
  0
SECTION
  2
OBJECTS
  0
DICTIONARY
  0
ENDSEC
  0
EOF
