<?xml version="1.0" encoding="UTF-8"?>
<svg xmlns="http://www.w3.org/2000/svg" xmlns:xlink="http://www.w3.org/1999/xlink" width="256pt" height="256pt" viewBox="0 0 256 256" version="1.1">
<g id="surface1">
<rect x="0" y="0" width="256" height="256" style="fill:rgb(100%,100%,100%);fill-opacity:1;stroke:none;"/>
<path style="fill:none;stroke-width:0.02;stroke-linecap:butt;stroke-linejoin:miter;stroke:rgb(0%,0%,0%);stroke-opacity:1;stroke-miterlimit:10;" d="M 0.782837 0.782837 C 0.877304 0.688385 0.918381 0.552994 0.892319 0.421967 C 0.866257 0.290939 0.776505 0.18158 0.653076 0.130447 C 0.529648 0.0793304 0.388855 0.0931854 0.277771 0.167419 C 0.166687 0.241638 0.100006 0.366409 0.100006 0.5 " transform="matrix(256,0,0,256,0,0)"/>
<path style=" stroke:none;fill-rule:nonzero;fill:rgb(100%,20%,20%);fill-opacity:0.6;" d="M 133.429688 133.429688 C 130.839844 136.019531 126.78125 136.421875 123.734375 134.386719 C 120.6875 132.351562 119.503906 128.445312 120.90625 125.0625 C 122.308594 121.675781 125.90625 119.753906 129.5 120.46875 C 133.09375 121.183594 135.679688 124.335938 135.679688 128 "/>
<path style="fill:none;stroke-width:0.01;stroke-linecap:butt;stroke-linejoin:miter;stroke:rgb(100%,20%,20%);stroke-opacity:0.6;stroke-miterlimit:10;" d="M 0.782837 0.782837 L 0.5 0.5 L 0.100006 0.5 L 0.5 0.5 " transform="matrix(256,0,0,256,0,0)"/>
</g>
</svg>
