<?xml version="1.0" encoding="UTF-8"?>
<svg xmlns="http://www.w3.org/2000/svg" xmlns:xlink="http://www.w3.org/1999/xlink" width="256pt" height="256pt" viewBox="0 0 256 256" version="1.1">
<g id="surface1">
<rect x="0" y="0" width="256" height="256" style="fill:rgb(100%,100%,100%);fill-opacity:1;stroke:none;"/>
<path style="fill:none;stroke-width:0.02;stroke-linecap:butt;stroke-linejoin:miter;stroke:rgb(0%,0%,0%);stroke-opacity:1;stroke-miterlimit:10;" d="M 0.899994 0.5 C 0.899994 0.720917 0.720917 0.899994 0.5 0.899994 C 0.279083 0.899994 0.100006 0.720917 0.100006 0.5 C 0.100006 0.279083 0.279083 0.100006 0.5 0.100006 C 0.720917 0.100006 0.899994 0.279083 0.899994 0.5 " transform="matrix(256,0,0,256,0,0)"/>
<path style=" stroke:none;fill-rule:nonzero;fill:rgb(100%,20%,20%);fill-opacity:0.6;" d="M 135.679688 128 C 135.679688 132.242188 132.242188 135.679688 128 135.679688 C 123.757812 135.679688 120.320312 132.242188 120.320312 128 C 120.320312 123.757812 123.757812 120.320312 128 120.320312 C 132.242188 120.320312 135.679688 123.757812 135.679688 128 "/>
</g>
</svg>
