<?xml version="1.0" encoding="UTF-8"?>
<svg xmlns="http://www.w3.org/2000/svg" xmlns:xlink="http://www.w3.org/1999/xlink" width="256pt" height="256pt" viewBox="0 0 256 256" version="1.1">
<g id="surface1">
<rect x="0" y="0" width="256" height="256" style="fill:rgb(100%,100%,100%);fill-opacity:1;stroke:none;"/>
<path style="fill:none;stroke-width:0.01;stroke-linecap:butt;stroke-linejoin:miter;stroke:rgb(0%,0%,0%);stroke-opacity:1;stroke-dasharray:0.03;stroke-miterlimit:10;" d="M 0.100006 0.100006 L 0.400009 0.100006 L 0.400009 0.400009 L 0.100006 0.400009 Z " transform="matrix(256,0,0,256,0,0)"/>
<path style="fill:none;stroke-width:0.01;stroke-linecap:butt;stroke-linejoin:miter;stroke:rgb(0%,0%,0%);stroke-opacity:1;stroke-dasharray:0.04,0.01;stroke-miterlimit:10;" d="M 0.100006 0.600006 L 0.400009 0.600006 L 0.400009 0.900009 L 0.100006 0.900009 Z " transform="matrix(256,0,0,256,0,0)"/>
<path style="fill:none;stroke-width:0.01;stroke-linecap:butt;stroke-linejoin:miter;stroke:rgb(0%,0%,0%);stroke-opacity:1;stroke-dasharray:0.03,0.01,0.01,0.01;stroke-miterlimit:10;" d="M 0.600006 0.100006 L 0.900009 0.100006 L 0.900009 0.400009 L 0.600006 0.400009 Z " transform="matrix(256,0,0,256,0,0)"/>
<path style="fill:none;stroke-width:0.01;stroke-linecap:butt;stroke-linejoin:miter;stroke:rgb(0%,0%,0%);stroke-opacity:1;stroke-dasharray:0.03,0.01,0.01,0.01,0.01,0.01;stroke-miterlimit:10;" d="M 0.600006 0.600006 L 0.900009 0.600006 L 0.900009 0.900009 L 0.600006 0.900009 Z " transform="matrix(256,0,0,256,0,0)"/>
</g>
</svg>
