<?xml version="1.0" encoding="UTF-8"?>
<svg xmlns="http://www.w3.org/2000/svg" xmlns:xlink="http://www.w3.org/1999/xlink" width="256pt" height="256pt" viewBox="0 0 256 256" version="1.1">
<g id="surface1">
<path style=" stroke:none;fill-rule:nonzero;fill:rgb(100%,100%,100%);fill-opacity:1;" d="M 0 0 L 1 0 L 1 1 L 0 1 Z "/>
<path style="fill:none;stroke-width:3;stroke-linecap:butt;stroke-linejoin:miter;stroke:rgb(0%,0%,0%);stroke-opacity:1;stroke-miterlimit:10;" d="M 120 0 C 120 19.882812 66.273438 36 0 36 C -66.273438 36 -120 19.882812 -120 0 C -120 -19.882812 -66.273438 -36 0 -36 C 66.273438 -36 120 -19.882812 120 0 " transform="matrix(1,0,0,1,128,128)"/>
<path style="fill:none;stroke-width:3;stroke-linecap:butt;stroke-linejoin:miter;stroke:rgb(0%,0%,0%);stroke-opacity:1;stroke-miterlimit:10;" d="M 118.972656 15.664062 C 116.378906 35.375 61.007812 44.34375 -4.699219 35.691406 C -70.40625 27.042969 -121.570312 4.050781 -118.972656 -15.664062 C -116.378906 -35.375 -61.007812 -44.34375 4.699219 -35.691406 C 70.40625 -27.042969 121.570312 -4.050781 118.972656 15.664062 " transform="matrix(1,0,0,1,128,128)"/>
<path style="fill:none;stroke-width:3;stroke-linecap:butt;stroke-linejoin:miter;stroke:rgb(0%,0%,0%);stroke-opacity:1;stroke-miterlimit:10;" d="M 115.910156 31.058594 C 110.765625 50.261719 54.699219 51.925781 -9.316406 34.773438 C -73.332031 17.621094 -121.058594 -11.851562 -115.910156 -31.058594 C -110.765625 -50.261719 -54.699219 -51.925781 9.316406 -34.773438 C 73.332031 -17.621094 121.058594 11.851562 115.910156 31.058594 " transform="matrix(1,0,0,1,128,128)"/>
<path style="fill:none;stroke-width:3;stroke-linecap:butt;stroke-linejoin:miter;stroke:rgb(0%,0%,0%);stroke-opacity:1;stroke-miterlimit:10;" d="M 110.867188 45.921875 C 103.257812 64.289062 47.453125 58.621094 -13.777344 33.257812 C -75.007812 7.898438 -118.472656 -27.554688 -110.867188 -45.921875 C -103.257812 -64.289062 -47.453125 -58.621094 13.777344 -33.257812 C 75.007812 -7.898438 118.472656 27.554688 110.867188 45.921875 " transform="matrix(1,0,0,1,128,128)"/>
<path style="fill:none;stroke-width:3;stroke-linecap:butt;stroke-linejoin:miter;stroke:rgb(0%,0%,0%);stroke-opacity:1;stroke-miterlimit:10;" d="M 103.921875 60 C 93.980469 77.21875 39.394531 64.3125 -18 31.175781 C -75.394531 -1.960938 -113.863281 -42.78125 -103.921875 -60 C -93.980469 -77.21875 -39.394531 -64.3125 18 -31.175781 C 75.394531 1.960938 113.863281 42.78125 103.921875 60 " transform="matrix(1,0,0,1,128,128)"/>
<path style="fill:none;stroke-width:3;stroke-linecap:butt;stroke-linejoin:miter;stroke:rgb(0%,0%,0%);stroke-opacity:1;stroke-miterlimit:10;" d="M 95.203125 73.050781 C 83.097656 88.824219 30.664062 68.90625 -21.914062 28.5625 C -74.496094 -11.785156 -107.304688 -57.277344 -95.203125 -73.050781 C -83.097656 -88.824219 -30.664062 -68.90625 21.914062 -28.5625 C 74.496094 11.785156 107.304688 57.277344 95.203125 73.050781 " transform="matrix(1,0,0,1,128,128)"/>
<path style="fill:none;stroke-width:3;stroke-linecap:butt;stroke-linejoin:miter;stroke:rgb(0%,0%,0%);stroke-opacity:1;stroke-miterlimit:10;" d="M 84.851562 84.851562 C 70.792969 98.910156 21.40625 72.320312 -25.457031 25.457031 C -72.320312 -21.40625 -98.910156 -70.792969 -84.851562 -84.851562 C -70.792969 -98.910156 -21.40625 -72.320312 25.457031 -25.457031 C 72.320312 21.40625 98.910156 70.792969 84.851562 84.851562 " transform="matrix(1,0,0,1,128,128)"/>
<path style="fill:none;stroke-width:3;stroke-linecap:butt;stroke-linejoin:miter;stroke:rgb(0%,0%,0%);stroke-opacity:1;stroke-miterlimit:10;" d="M 73.050781 95.203125 C 57.277344 107.304688 11.785156 74.496094 -28.5625 21.914062 C -68.90625 -30.664062 -88.824219 -83.097656 -73.050781 -95.203125 C -57.277344 -107.304688 -11.785156 -74.496094 28.5625 -21.914062 C 68.90625 30.664062 88.824219 83.097656 73.050781 95.203125 " transform="matrix(1,0,0,1,128,128)"/>
<path style="fill:none;stroke-width:3;stroke-linecap:butt;stroke-linejoin:miter;stroke:rgb(0%,0%,0%);stroke-opacity:1;stroke-miterlimit:10;" d="M 60 103.921875 C 42.78125 113.863281 1.960938 75.394531 -31.175781 18 C -64.3125 -39.394531 -77.21875 -93.980469 -60 -103.921875 C -42.78125 -113.863281 -1.960938 -75.394531 31.175781 -18 C 64.3125 39.394531 77.21875 93.980469 60 103.921875 " transform="matrix(1,0,0,1,128,128)"/>
<path style="fill:none;stroke-width:3;stroke-linecap:butt;stroke-linejoin:miter;stroke:rgb(0%,0%,0%);stroke-opacity:1;stroke-miterlimit:10;" d="M 45.921875 110.867188 C 27.554688 118.472656 -7.898438 75.007812 -33.257812 13.777344 C -58.621094 -47.453125 -64.289062 -103.257812 -45.921875 -110.867188 C -27.554688 -118.472656 7.898438 -75.007812 33.257812 -13.777344 C 58.621094 47.453125 64.289062 103.257812 45.921875 110.867188 " transform="matrix(1,0,0,1,128,128)"/>
<path style="fill:none;stroke-width:3;stroke-linecap:butt;stroke-linejoin:miter;stroke:rgb(0%,0%,0%);stroke-opacity:1;stroke-miterlimit:10;" d="M 31.058594 115.910156 C 11.851562 121.058594 -17.621094 73.332031 -34.773438 9.316406 C -51.925781 -54.699219 -50.261719 -110.765625 -31.058594 -115.910156 C -11.851562 -121.058594 17.621094 -73.332031 34.773438 -9.316406 C 51.925781 54.699219 50.261719 110.765625 31.058594 115.910156 " transform="matrix(1,0,0,1,128,128)"/>
<path style="fill:none;stroke-width:3;stroke-linecap:butt;stroke-linejoin:miter;stroke:rgb(0%,0%,0%);stroke-opacity:1;stroke-miterlimit:10;" d="M 15.664062 118.972656 C -4.050781 121.570312 -27.042969 70.40625 -35.691406 4.699219 C -44.34375 -61.007812 -35.375 -116.378906 -15.664062 -118.972656 C 4.050781 -121.570312 27.042969 -70.40625 35.691406 -4.699219 C 44.34375 61.007812 35.375 116.378906 15.664062 118.972656 " transform="matrix(1,0,0,1,128,128)"/>
<path style="fill:none;stroke-width:3;stroke-linecap:butt;stroke-linejoin:miter;stroke:rgb(0%,0%,0%);stroke-opacity:1;stroke-miterlimit:10;" d="M 0 120 C -19.882812 120 -36 66.273438 -36 0 C -36 -66.273438 -19.882812 -120 0 -120 C 19.882812 -120 36 -66.273438 36 0 C 36 66.273438 19.882812 120 0 120 " transform="matrix(1,0,0,1,128,128)"/>
<path style="fill:none;stroke-width:3;stroke-linecap:butt;stroke-linejoin:miter;stroke:rgb(0%,0%,0%);stroke-opacity:1;stroke-miterlimit:10;" d="M -15.664062 118.972656 C -35.375 116.378906 -44.34375 61.007812 -35.691406 -4.699219 C -27.042969 -70.40625 -4.050781 -121.570312 15.664062 -118.972656 C 35.375 -116.378906 44.34375 -61.007812 35.691406 4.699219 C 27.042969 70.40625 4.050781 121.570312 -15.664062 118.972656 " transform="matrix(1,0,0,1,128,128)"/>
<path style="fill:none;stroke-width:3;stroke-linecap:butt;stroke-linejoin:miter;stroke:rgb(0%,0%,0%);stroke-opacity:1;stroke-miterlimit:10;" d="M -31.058594 115.910156 C -50.261719 110.765625 -51.925781 54.699219 -34.773438 -9.316406 C -17.621094 -73.332031 11.851562 -121.058594 31.058594 -115.910156 C 50.261719 -110.765625 51.925781 -54.699219 34.773438 9.316406 C 17.621094 73.332031 -11.851562 121.058594 -31.058594 115.910156 " transform="matrix(1,0,0,1,128,128)"/>
<path style="fill:none;stroke-width:3;stroke-linecap:butt;stroke-linejoin:miter;stroke:rgb(0%,0%,0%);stroke-opacity:1;stroke-miterlimit:10;" d="M -45.921875 110.867188 C -64.289062 103.257812 -58.621094 47.453125 -33.257812 -13.777344 C -7.898438 -75.007812 27.554688 -118.472656 45.921875 -110.867188 C 64.289062 -103.257812 58.621094 -47.453125 33.257812 13.777344 C 7.898438 75.007812 -27.554688 118.472656 -45.921875 110.867188 " transform="matrix(1,0,0,1,128,128)"/>
<path style="fill:none;stroke-width:3;stroke-linecap:butt;stroke-linejoin:miter;stroke:rgb(0%,0%,0%);stroke-opacity:1;stroke-miterlimit:10;" d="M -60 103.921875 C -77.21875 93.980469 -64.3125 39.394531 -31.175781 -18 C 1.960938 -75.394531 42.78125 -113.863281 60 -103.921875 C 77.21875 -93.980469 64.3125 -39.394531 31.175781 18 C -1.960938 75.394531 -42.78125 113.863281 -60 103.921875 " transform="matrix(1,0,0,1,128,128)"/>
<path style="fill:none;stroke-width:3;stroke-linecap:butt;stroke-linejoin:miter;stroke:rgb(0%,0%,0%);stroke-opacity:1;stroke-miterlimit:10;" d="M -73.050781 95.203125 C -88.824219 83.097656 -68.90625 30.664062 -28.5625 -21.914062 C 11.785156 -74.496094 57.277344 -107.304688 73.050781 -95.203125 C 88.824219 -83.097656 68.90625 -30.664062 28.5625 21.914062 C -11.785156 74.496094 -57.277344 107.304688 -73.050781 95.203125 " transform="matrix(1,0,0,1,128,128)"/>
<path style="fill:none;stroke-width:3;stroke-linecap:butt;stroke-linejoin:miter;stroke:rgb(0%,0%,0%);stroke-opacity:1;stroke-miterlimit:10;" d="M -84.851562 84.851562 C -98.910156 70.792969 -72.320312 21.40625 -25.457031 -25.457031 C 21.40625 -72.320312 70.792969 -98.910156 84.851562 -84.851562 C 98.910156 -70.792969 72.320312 -21.40625 25.457031 25.457031 C -21.40625 72.320312 -70.792969 98.910156 -84.851562 84.851562 " transform="matrix(1,0,0,1,128,128)"/>
<path style="fill:none;stroke-width:3;stroke-linecap:butt;stroke-linejoin:miter;stroke:rgb(0%,0%,0%);stroke-opacity:1;stroke-miterlimit:10;" d="M -95.203125 73.050781 C -107.304688 57.277344 -74.496094 11.785156 -21.914062 -28.5625 C 30.664062 -68.90625 83.097656 -88.824219 95.203125 -73.050781 C 107.304688 -57.277344 74.496094 -11.785156 21.914062 28.5625 C -30.664062 68.90625 -83.097656 88.824219 -95.203125 73.050781 " transform="matrix(1,0,0,1,128,128)"/>
<path style="fill:none;stroke-width:3;stroke-linecap:butt;stroke-linejoin:miter;stroke:rgb(0%,0%,0%);stroke-opacity:1;stroke-miterlimit:10;" d="M -103.921875 60 C -113.863281 42.78125 -75.394531 1.960938 -18 -31.175781 C 39.394531 -64.3125 93.980469 -77.21875 103.921875 -60 C 113.863281 -42.78125 75.394531 -1.960938 18 31.175781 C -39.394531 64.3125 -93.980469 77.21875 -103.921875 60 " transform="matrix(1,0,0,1,128,128)"/>
<path style="fill:none;stroke-width:3;stroke-linecap:butt;stroke-linejoin:miter;stroke:rgb(0%,0%,0%);stroke-opacity:1;stroke-miterlimit:10;" d="M -110.867188 45.921875 C -118.472656 27.554688 -75.007812 -7.898438 -13.777344 -33.257812 C 47.453125 -58.621094 103.257812 -64.289062 110.867188 -45.921875 C 118.472656 -27.554688 75.007812 7.898438 13.777344 33.257812 C -47.453125 58.621094 -103.257812 64.289062 -110.867188 45.921875 " transform="matrix(1,0,0,1,128,128)"/>
<path style="fill:none;stroke-width:3;stroke-linecap:butt;stroke-linejoin:miter;stroke:rgb(0%,0%,0%);stroke-opacity:1;stroke-miterlimit:10;" d="M -115.910156 31.058594 C -121.058594 11.851562 -73.332031 -17.621094 -9.316406 -34.773438 C 54.699219 -51.925781 110.765625 -50.261719 115.910156 -31.058594 C 121.058594 -11.851562 73.332031 17.621094 9.316406 34.773438 C -54.699219 51.925781 -110.765625 50.261719 -115.910156 31.058594 " transform="matrix(1,0,0,1,128,128)"/>
<path style="fill:none;stroke-width:3;stroke-linecap:butt;stroke-linejoin:miter;stroke:rgb(0%,0%,0%);stroke-opacity:1;stroke-miterlimit:10;" d="M -118.972656 15.664062 C -121.570312 -4.050781 -70.40625 -27.042969 -4.699219 -35.691406 C 61.007812 -44.34375 116.378906 -35.375 118.972656 -15.664062 C 121.570312 4.050781 70.40625 27.042969 4.699219 35.691406 C -61.007812 44.34375 -116.378906 35.375 -118.972656 15.664062 " transform="matrix(1,0,0,1,128,128)"/>
<path style="fill:none;stroke-width:3;stroke-linecap:butt;stroke-linejoin:miter;stroke:rgb(0%,0%,0%);stroke-opacity:1;stroke-miterlimit:10;" d="M 120 0 C 120 66.273438 66.273438 120 0 120 C -66.273438 120 -120 66.273438 -120 0 C -120 -66.273438 -66.273438 -120 0 -120 C 66.273438 -120 120 -66.273438 120 0 " transform="matrix(1,0,0,1,128,128)"/>
</g>
</svg>
