<?xml version="1.0" encoding="UTF-8"?>
<svg xmlns="http://www.w3.org/2000/svg" xmlns:xlink="http://www.w3.org/1999/xlink" width="256pt" height="256pt" viewBox="0 0 256 256" version="1.1">
<g id="surface1">
<path style="fill-rule:nonzero;fill:rgb(28.544658%,77.112738%,22.756257%);fill-opacity:1;stroke-width:0.01;stroke-linecap:butt;stroke-linejoin:miter;stroke:rgb(0%,0%,0%);stroke-opacity:1;stroke-miterlimit:10;" d="M 0 0 L 0.100006 0 L 0.100006 0.100006 L 0 0.100006 Z " transform="matrix(256,0,0,256,0,0)"/>
<path style="fill-rule:nonzero;fill:rgb(68.716852%,67.928081%,81.995994%);fill-opacity:1;stroke-width:0.01;stroke-linecap:butt;stroke-linejoin:miter;stroke:rgb(0%,0%,0%);stroke-opacity:1;stroke-miterlimit:10;" d="M 0 0.100006 L 0.100006 0.100006 L 0.100006 0.200012 L 0 0.200012 Z " transform="matrix(256,0,0,256,0,0)"/>
<path style="fill-rule:nonzero;fill:rgb(23.155713%,75.519666%,28.090088%);fill-opacity:1;stroke-width:0.01;stroke-linecap:butt;stroke-linejoin:miter;stroke:rgb(0%,0%,0%);stroke-opacity:1;stroke-miterlimit:10;" d="M 0 0.199997 L 0.100006 0.199997 L 0.100006 0.300003 L 0 0.300003 Z " transform="matrix(256,0,0,256,0,0)"/>
<path style="fill-rule:nonzero;fill:rgb(51.570339%,24.057529%,22.982946%);fill-opacity:1;stroke-width:0.01;stroke-linecap:butt;stroke-linejoin:miter;stroke:rgb(0%,0%,0%);stroke-opacity:1;stroke-miterlimit:10;" d="M 0 0.300003 L 0.100006 0.300003 L 0.100006 0.400009 L 0 0.400009 Z " transform="matrix(256,0,0,256,0,0)"/>
<path style="fill-rule:nonzero;fill:rgb(71.328831%,30.045972%,24.288223%);fill-opacity:1;stroke-width:0.01;stroke-linecap:butt;stroke-linejoin:miter;stroke:rgb(0%,0%,0%);stroke-opacity:1;stroke-miterlimit:10;" d="M 0 0.399994 L 0.100006 0.399994 L 0.100006 0.5 L 0 0.5 Z " transform="matrix(256,0,0,256,0,0)"/>
<path style="fill-rule:nonzero;fill:rgb(29.423863%,27.531075%,56.266428%);fill-opacity:1;stroke-width:0.01;stroke-linecap:butt;stroke-linejoin:miter;stroke:rgb(0%,0%,0%);stroke-opacity:1;stroke-miterlimit:10;" d="M 0 0.5 L 0.100006 0.5 L 0.100006 0.600006 L 0 0.600006 Z " transform="matrix(256,0,0,256,0,0)"/>
<path style="fill-rule:nonzero;fill:rgb(7.024332%,2.220305%,53.97875%);fill-opacity:1;stroke-width:0.01;stroke-linecap:butt;stroke-linejoin:miter;stroke:rgb(0%,0%,0%);stroke-opacity:1;stroke-miterlimit:10;" d="M 0 0.600006 L 0.100006 0.600006 L 0.100006 0.700012 L 0 0.700012 Z " transform="matrix(256,0,0,256,0,0)"/>
<path style="fill-rule:nonzero;fill:rgb(72.293405%,45.090117%,74.569753%);fill-opacity:1;stroke-width:0.01;stroke-linecap:butt;stroke-linejoin:miter;stroke:rgb(0%,0%,0%);stroke-opacity:1;stroke-miterlimit:10;" d="M 0 0.699997 L 0.100006 0.699997 L 0.100006 0.800003 L 0 0.800003 Z " transform="matrix(256,0,0,256,0,0)"/>
<path style="fill-rule:nonzero;fill:rgb(17.433814%,90.822941%,48.889817%);fill-opacity:1;stroke-width:0.01;stroke-linecap:butt;stroke-linejoin:miter;stroke:rgb(0%,0%,0%);stroke-opacity:1;stroke-miterlimit:10;" d="M 0 0.800003 L 0.100006 0.800003 L 0.100006 0.900009 L 0 0.900009 Z " transform="matrix(256,0,0,256,0,0)"/>
<path style="fill-rule:nonzero;fill:rgb(38.804554%,24.118871%,70.545404%);fill-opacity:1;stroke-width:0.01;stroke-linecap:butt;stroke-linejoin:miter;stroke:rgb(0%,0%,0%);stroke-opacity:1;stroke-miterlimit:10;" d="M 0 0.899994 L 0.100006 0.899994 L 0.100006 1 L 0 1 Z " transform="matrix(256,0,0,256,0,0)"/>
<path style="fill-rule:nonzero;fill:rgb(10.937814%,26.945682%,37.356736%);fill-opacity:1;stroke-width:0.01;stroke-linecap:butt;stroke-linejoin:miter;stroke:rgb(0%,0%,0%);stroke-opacity:1;stroke-miterlimit:10;" d="M 0.100006 0 L 0.200012 0 L 0.200012 0.100006 L 0.100006 0.100006 Z " transform="matrix(256,0,0,256,0,0)"/>
<path style="fill-rule:nonzero;fill:rgb(2.62371%,86.53348%,91.302794%);fill-opacity:1;stroke-width:0.01;stroke-linecap:butt;stroke-linejoin:miter;stroke:rgb(0%,0%,0%);stroke-opacity:1;stroke-miterlimit:10;" d="M 0.100006 0.100006 L 0.200012 0.100006 L 0.200012 0.200012 L 0.100006 0.200012 Z " transform="matrix(256,0,0,256,0,0)"/>
<path style="fill-rule:nonzero;fill:rgb(1.823553%,89.580394%,44.184915%);fill-opacity:1;stroke-width:0.01;stroke-linecap:butt;stroke-linejoin:miter;stroke:rgb(0%,0%,0%);stroke-opacity:1;stroke-miterlimit:10;" d="M 0.100006 0.199997 L 0.200012 0.199997 L 0.200012 0.300003 L 0.100006 0.300003 Z " transform="matrix(256,0,0,256,0,0)"/>
<path style="fill-rule:nonzero;fill:rgb(45.513121%,95.24119%,89.341304%);fill-opacity:1;stroke-width:0.01;stroke-linecap:butt;stroke-linejoin:miter;stroke:rgb(0%,0%,0%);stroke-opacity:1;stroke-miterlimit:10;" d="M 0.100006 0.300003 L 0.200012 0.300003 L 0.200012 0.400009 L 0.100006 0.400009 Z " transform="matrix(256,0,0,256,0,0)"/>
<path style="fill-rule:nonzero;fill:rgb(68.495483%,23.207386%,97.840044%);fill-opacity:1;stroke-width:0.01;stroke-linecap:butt;stroke-linejoin:miter;stroke:rgb(0%,0%,0%);stroke-opacity:1;stroke-miterlimit:10;" d="M 0.100006 0.399994 L 0.200012 0.399994 L 0.200012 0.5 L 0.100006 0.5 Z " transform="matrix(256,0,0,256,0,0)"/>
<path style="fill-rule:nonzero;fill:rgb(16.554297%,53.950756%,2.826582%);fill-opacity:1;stroke-width:0.01;stroke-linecap:butt;stroke-linejoin:miter;stroke:rgb(0%,0%,0%);stroke-opacity:1;stroke-miterlimit:10;" d="M 0.100006 0.5 L 0.200012 0.5 L 0.200012 0.600006 L 0.100006 0.600006 Z " transform="matrix(256,0,0,256,0,0)"/>
<path style="fill-rule:nonzero;fill:rgb(94.974566%,66.275253%,79.119453%);fill-opacity:1;stroke-width:0.01;stroke-linecap:butt;stroke-linejoin:miter;stroke:rgb(0%,0%,0%);stroke-opacity:1;stroke-miterlimit:10;" d="M 0.100006 0.600006 L 0.200012 0.600006 L 0.200012 0.700012 L 0.100006 0.700012 Z " transform="matrix(256,0,0,256,0,0)"/>
<path style="fill-rule:nonzero;fill:rgb(89.196604%,24.733895%,52.190509%);fill-opacity:1;stroke-width:0.01;stroke-linecap:butt;stroke-linejoin:miter;stroke:rgb(0%,0%,0%);stroke-opacity:1;stroke-miterlimit:10;" d="M 0.100006 0.699997 L 0.200012 0.699997 L 0.200012 0.800003 L 0.100006 0.800003 Z " transform="matrix(256,0,0,256,0,0)"/>
<path style="fill-rule:nonzero;fill:rgb(47.401245%,7.490992%,71.632157%);fill-opacity:1;stroke-width:0.01;stroke-linecap:butt;stroke-linejoin:miter;stroke:rgb(0%,0%,0%);stroke-opacity:1;stroke-miterlimit:10;" d="M 0.100006 0.800003 L 0.200012 0.800003 L 0.200012 0.900009 L 0.100006 0.900009 Z " transform="matrix(256,0,0,256,0,0)"/>
<path style="fill-rule:nonzero;fill:rgb(75.606803%,77.735765%,18.128106%);fill-opacity:1;stroke-width:0.01;stroke-linecap:butt;stroke-linejoin:miter;stroke:rgb(0%,0%,0%);stroke-opacity:1;stroke-miterlimit:10;" d="M 0.100006 0.899994 L 0.200012 0.899994 L 0.200012 1 L 0.100006 1 Z " transform="matrix(256,0,0,256,0,0)"/>
<path style="fill-rule:nonzero;fill:rgb(28.368091%,58.158831%,56.905524%);fill-opacity:1;stroke-width:0.01;stroke-linecap:butt;stroke-linejoin:miter;stroke:rgb(0%,0%,0%);stroke-opacity:1;stroke-miterlimit:10;" d="M 0.199997 0 L 0.300003 0 L 0.300003 0.100006 L 0.199997 0.100006 Z " transform="matrix(256,0,0,256,0,0)"/>
<path style="fill-rule:nonzero;fill:rgb(48.300296%,22.59644%,96.627769%);fill-opacity:1;stroke-width:0.01;stroke-linecap:butt;stroke-linejoin:miter;stroke:rgb(0%,0%,0%);stroke-opacity:1;stroke-miterlimit:10;" d="M 0.199997 0.100006 L 0.300003 0.100006 L 0.300003 0.200012 L 0.199997 0.200012 Z " transform="matrix(256,0,0,256,0,0)"/>
<path style="fill-rule:nonzero;fill:rgb(6.551956%,37.84277%,34.985%);fill-opacity:1;stroke-width:0.01;stroke-linecap:butt;stroke-linejoin:miter;stroke:rgb(0%,0%,0%);stroke-opacity:1;stroke-miterlimit:10;" d="M 0.199997 0.199997 L 0.300003 0.199997 L 0.300003 0.300003 L 0.199997 0.300003 Z " transform="matrix(256,0,0,256,0,0)"/>
<path style="fill-rule:nonzero;fill:rgb(81.072089%,27.199492%,10.597079%);fill-opacity:1;stroke-width:0.01;stroke-linecap:butt;stroke-linejoin:miter;stroke:rgb(0%,0%,0%);stroke-opacity:1;stroke-miterlimit:10;" d="M 0.199997 0.300003 L 0.300003 0.300003 L 0.300003 0.400009 L 0.199997 0.400009 Z " transform="matrix(256,0,0,256,0,0)"/>
<path style="fill-rule:nonzero;fill:rgb(83.844372%,28.028121%,32.289495%);fill-opacity:1;stroke-width:0.01;stroke-linecap:butt;stroke-linejoin:miter;stroke:rgb(0%,0%,0%);stroke-opacity:1;stroke-miterlimit:10;" d="M 0.199997 0.399994 L 0.300003 0.399994 L 0.300003 0.5 L 0.199997 0.5 Z " transform="matrix(256,0,0,256,0,0)"/>
<path style="fill-rule:nonzero;fill:rgb(98.441406%,22.189327%,8.383935%);fill-opacity:1;stroke-width:0.01;stroke-linecap:butt;stroke-linejoin:miter;stroke:rgb(0%,0%,0%);stroke-opacity:1;stroke-miterlimit:10;" d="M 0.199997 0.5 L 0.300003 0.5 L 0.300003 0.600006 L 0.199997 0.600006 Z " transform="matrix(256,0,0,256,0,0)"/>
<path style="fill-rule:nonzero;fill:rgb(93.484906%,19.480002%,4.412987%);fill-opacity:1;stroke-width:0.01;stroke-linecap:butt;stroke-linejoin:miter;stroke:rgb(0%,0%,0%);stroke-opacity:1;stroke-miterlimit:10;" d="M 0.199997 0.600006 L 0.300003 0.600006 L 0.300003 0.700012 L 0.199997 0.700012 Z " transform="matrix(256,0,0,256,0,0)"/>
<path style="fill-rule:nonzero;fill:rgb(43.802451%,92.958165%,64.726679%);fill-opacity:1;stroke-width:0.01;stroke-linecap:butt;stroke-linejoin:miter;stroke:rgb(0%,0%,0%);stroke-opacity:1;stroke-miterlimit:10;" d="M 0.199997 0.699997 L 0.300003 0.699997 L 0.300003 0.800003 L 0.199997 0.800003 Z " transform="matrix(256,0,0,256,0,0)"/>
<path style="fill-rule:nonzero;fill:rgb(73.525228%,20.695806%,27.395146%);fill-opacity:1;stroke-width:0.01;stroke-linecap:butt;stroke-linejoin:miter;stroke:rgb(0%,0%,0%);stroke-opacity:1;stroke-miterlimit:10;" d="M 0.199997 0.800003 L 0.300003 0.800003 L 0.300003 0.900009 L 0.199997 0.900009 Z " transform="matrix(256,0,0,256,0,0)"/>
<path style="fill-rule:nonzero;fill:rgb(28.227586%,23.277252%,3.92428%);fill-opacity:1;stroke-width:0.01;stroke-linecap:butt;stroke-linejoin:miter;stroke:rgb(0%,0%,0%);stroke-opacity:1;stroke-miterlimit:10;" d="M 0.199997 0.899994 L 0.300003 0.899994 L 0.300003 1 L 0.199997 1 Z " transform="matrix(256,0,0,256,0,0)"/>
<path style="fill-rule:nonzero;fill:rgb(94.316383%,2.680438%,34.109959%);fill-opacity:1;stroke-width:0.01;stroke-linecap:butt;stroke-linejoin:miter;stroke:rgb(0%,0%,0%);stroke-opacity:1;stroke-miterlimit:10;" d="M 0.300003 0 L 0.400009 0 L 0.400009 0.100006 L 0.300003 0.100006 Z " transform="matrix(256,0,0,256,0,0)"/>
<path style="fill-rule:nonzero;fill:rgb(36.907823%,39.185785%,25.461747%);fill-opacity:1;stroke-width:0.01;stroke-linecap:butt;stroke-linejoin:miter;stroke:rgb(0%,0%,0%);stroke-opacity:1;stroke-miterlimit:10;" d="M 0.300003 0.100006 L 0.400009 0.100006 L 0.400009 0.200012 L 0.300003 0.200012 Z " transform="matrix(256,0,0,256,0,0)"/>
<path style="fill-rule:nonzero;fill:rgb(68.582734%,93.201975%,51.337841%);fill-opacity:1;stroke-width:0.01;stroke-linecap:butt;stroke-linejoin:miter;stroke:rgb(0%,0%,0%);stroke-opacity:1;stroke-miterlimit:10;" d="M 0.300003 0.199997 L 0.400009 0.199997 L 0.400009 0.300003 L 0.300003 0.300003 Z " transform="matrix(256,0,0,256,0,0)"/>
<path style="fill-rule:nonzero;fill:rgb(16.064435%,40.917902%,15.010307%);fill-opacity:1;stroke-width:0.01;stroke-linecap:butt;stroke-linejoin:miter;stroke:rgb(0%,0%,0%);stroke-opacity:1;stroke-miterlimit:10;" d="M 0.300003 0.300003 L 0.400009 0.300003 L 0.400009 0.400009 L 0.300003 0.400009 Z " transform="matrix(256,0,0,256,0,0)"/>
<path style="fill-rule:nonzero;fill:rgb(87.377543%,30.07562%,22.926729%);fill-opacity:1;stroke-width:0.01;stroke-linecap:butt;stroke-linejoin:miter;stroke:rgb(0%,0%,0%);stroke-opacity:1;stroke-miterlimit:10;" d="M 0.300003 0.399994 L 0.400009 0.399994 L 0.400009 0.5 L 0.300003 0.5 Z " transform="matrix(256,0,0,256,0,0)"/>
<path style="fill-rule:nonzero;fill:rgb(36.703843%,66.349902%,12.400629%);fill-opacity:1;stroke-width:0.01;stroke-linecap:butt;stroke-linejoin:miter;stroke:rgb(0%,0%,0%);stroke-opacity:1;stroke-miterlimit:10;" d="M 0.300003 0.5 L 0.400009 0.5 L 0.400009 0.600006 L 0.300003 0.600006 Z " transform="matrix(256,0,0,256,0,0)"/>
<path style="fill-rule:nonzero;fill:rgb(37.682946%,93.819387%,40.313982%);fill-opacity:1;stroke-width:0.01;stroke-linecap:butt;stroke-linejoin:miter;stroke:rgb(0%,0%,0%);stroke-opacity:1;stroke-miterlimit:10;" d="M 0.300003 0.600006 L 0.400009 0.600006 L 0.400009 0.700012 L 0.300003 0.700012 Z " transform="matrix(256,0,0,256,0,0)"/>
<path style="fill-rule:nonzero;fill:rgb(60.068016%,12.177375%,84.41039%);fill-opacity:1;stroke-width:0.01;stroke-linecap:butt;stroke-linejoin:miter;stroke:rgb(0%,0%,0%);stroke-opacity:1;stroke-miterlimit:10;" d="M 0.300003 0.699997 L 0.400009 0.699997 L 0.400009 0.800003 L 0.300003 0.800003 Z " transform="matrix(256,0,0,256,0,0)"/>
<path style="fill-rule:nonzero;fill:rgb(99.188191%,64.013049%,87.29711%);fill-opacity:1;stroke-width:0.01;stroke-linecap:butt;stroke-linejoin:miter;stroke:rgb(0%,0%,0%);stroke-opacity:1;stroke-miterlimit:10;" d="M 0.300003 0.800003 L 0.400009 0.800003 L 0.400009 0.900009 L 0.300003 0.900009 Z " transform="matrix(256,0,0,256,0,0)"/>
<path style="fill-rule:nonzero;fill:rgb(87.966178%,22.50439%,82.561941%);fill-opacity:1;stroke-width:0.01;stroke-linecap:butt;stroke-linejoin:miter;stroke:rgb(0%,0%,0%);stroke-opacity:1;stroke-miterlimit:10;" d="M 0.300003 0.899994 L 0.400009 0.899994 L 0.400009 1 L 0.300003 1 Z " transform="matrix(256,0,0,256,0,0)"/>
<path style="fill-rule:nonzero;fill:rgb(32.733532%,40.320772%,73.132681%);fill-opacity:1;stroke-width:0.01;stroke-linecap:butt;stroke-linejoin:miter;stroke:rgb(0%,0%,0%);stroke-opacity:1;stroke-miterlimit:10;" d="M 0.399994 0 L 0.5 0 L 0.5 0.100006 L 0.399994 0.100006 Z " transform="matrix(256,0,0,256,0,0)"/>
<path style="fill-rule:nonzero;fill:rgb(5.00633%,64.725984%,91.777684%);fill-opacity:1;stroke-width:0.01;stroke-linecap:butt;stroke-linejoin:miter;stroke:rgb(0%,0%,0%);stroke-opacity:1;stroke-miterlimit:10;" d="M 0.399994 0.100006 L 0.5 0.100006 L 0.5 0.200012 L 0.399994 0.200012 Z " transform="matrix(256,0,0,256,0,0)"/>
<path style="fill-rule:nonzero;fill:rgb(85.232299%,76.238009%,45.136749%);fill-opacity:1;stroke-width:0.01;stroke-linecap:butt;stroke-linejoin:miter;stroke:rgb(0%,0%,0%);stroke-opacity:1;stroke-miterlimit:10;" d="M 0.399994 0.199997 L 0.5 0.199997 L 0.5 0.300003 L 0.399994 0.300003 Z " transform="matrix(256,0,0,256,0,0)"/>
<path style="fill-rule:nonzero;fill:rgb(87.043546%,13.059796%,14.857396%);fill-opacity:1;stroke-width:0.01;stroke-linecap:butt;stroke-linejoin:miter;stroke:rgb(0%,0%,0%);stroke-opacity:1;stroke-miterlimit:10;" d="M 0.399994 0.300003 L 0.5 0.300003 L 0.5 0.400009 L 0.399994 0.400009 Z " transform="matrix(256,0,0,256,0,0)"/>
<path style="fill-rule:nonzero;fill:rgb(40.068011%,15.063009%,52.500822%);fill-opacity:1;stroke-width:0.01;stroke-linecap:butt;stroke-linejoin:miter;stroke:rgb(0%,0%,0%);stroke-opacity:1;stroke-miterlimit:10;" d="M 0.399994 0.399994 L 0.5 0.399994 L 0.5 0.5 L 0.399994 0.5 Z " transform="matrix(256,0,0,256,0,0)"/>
<path style="fill-rule:nonzero;fill:rgb(99.367419%,98.488947%,92.319149%);fill-opacity:1;stroke-width:0.01;stroke-linecap:butt;stroke-linejoin:miter;stroke:rgb(0%,0%,0%);stroke-opacity:1;stroke-miterlimit:10;" d="M 0.399994 0.5 L 0.5 0.5 L 0.5 0.600006 L 0.399994 0.600006 Z " transform="matrix(256,0,0,256,0,0)"/>
<path style="fill-rule:nonzero;fill:rgb(86.425607%,99.510067%,98.639844%);fill-opacity:1;stroke-width:0.01;stroke-linecap:butt;stroke-linejoin:miter;stroke:rgb(0%,0%,0%);stroke-opacity:1;stroke-miterlimit:10;" d="M 0.399994 0.600006 L 0.5 0.600006 L 0.5 0.700012 L 0.399994 0.700012 Z " transform="matrix(256,0,0,256,0,0)"/>
<path style="fill-rule:nonzero;fill:rgb(96.164329%,22.487765%,51.94585%);fill-opacity:1;stroke-width:0.01;stroke-linecap:butt;stroke-linejoin:miter;stroke:rgb(0%,0%,0%);stroke-opacity:1;stroke-miterlimit:10;" d="M 0.399994 0.699997 L 0.5 0.699997 L 0.5 0.800003 L 0.399994 0.800003 Z " transform="matrix(256,0,0,256,0,0)"/>
<path style="fill-rule:nonzero;fill:rgb(33.881484%,24.141871%,32.527491%);fill-opacity:1;stroke-width:0.01;stroke-linecap:butt;stroke-linejoin:miter;stroke:rgb(0%,0%,0%);stroke-opacity:1;stroke-miterlimit:10;" d="M 0.399994 0.800003 L 0.5 0.800003 L 0.5 0.900009 L 0.399994 0.900009 Z " transform="matrix(256,0,0,256,0,0)"/>
<path style="fill-rule:nonzero;fill:rgb(7.198542%,18.769152%,20.86588%);fill-opacity:1;stroke-width:0.01;stroke-linecap:butt;stroke-linejoin:miter;stroke:rgb(0%,0%,0%);stroke-opacity:1;stroke-miterlimit:10;" d="M 0.399994 0.899994 L 0.5 0.899994 L 0.5 1 L 0.399994 1 Z " transform="matrix(256,0,0,256,0,0)"/>
<path style="fill-rule:nonzero;fill:rgb(11.735061%,58.99767%,34.114981%);fill-opacity:1;stroke-width:0.01;stroke-linecap:butt;stroke-linejoin:miter;stroke:rgb(0%,0%,0%);stroke-opacity:1;stroke-miterlimit:10;" d="M 0.5 0 L 0.600006 0 L 0.600006 0.100006 L 0.5 0.100006 Z " transform="matrix(256,0,0,256,0,0)"/>
<path style="fill-rule:nonzero;fill:rgb(0.051516%,68.901299%,1.653335%);fill-opacity:1;stroke-width:0.01;stroke-linecap:butt;stroke-linejoin:miter;stroke:rgb(0%,0%,0%);stroke-opacity:1;stroke-miterlimit:10;" d="M 0.5 0.100006 L 0.600006 0.100006 L 0.600006 0.200012 L 0.5 0.200012 Z " transform="matrix(256,0,0,256,0,0)"/>
<path style="fill-rule:nonzero;fill:rgb(27.120341%,77.457462%,38.681018%);fill-opacity:1;stroke-width:0.01;stroke-linecap:butt;stroke-linejoin:miter;stroke:rgb(0%,0%,0%);stroke-opacity:1;stroke-miterlimit:10;" d="M 0.5 0.199997 L 0.600006 0.199997 L 0.600006 0.300003 L 0.5 0.300003 Z " transform="matrix(256,0,0,256,0,0)"/>
<path style="fill-rule:nonzero;fill:rgb(74.582632%,1.079037%,25.389587%);fill-opacity:1;stroke-width:0.01;stroke-linecap:butt;stroke-linejoin:miter;stroke:rgb(0%,0%,0%);stroke-opacity:1;stroke-miterlimit:10;" d="M 0.5 0.300003 L 0.600006 0.300003 L 0.600006 0.400009 L 0.5 0.400009 Z " transform="matrix(256,0,0,256,0,0)"/>
<path style="fill-rule:nonzero;fill:rgb(40.372053%,77.391498%,85.350168%);fill-opacity:1;stroke-width:0.01;stroke-linecap:butt;stroke-linejoin:miter;stroke:rgb(0%,0%,0%);stroke-opacity:1;stroke-miterlimit:10;" d="M 0.5 0.399994 L 0.600006 0.399994 L 0.600006 0.5 L 0.5 0.5 Z " transform="matrix(256,0,0,256,0,0)"/>
<path style="fill-rule:nonzero;fill:rgb(56.598968%,46.911345%,36.603838%);fill-opacity:1;stroke-width:0.01;stroke-linecap:butt;stroke-linejoin:miter;stroke:rgb(0%,0%,0%);stroke-opacity:1;stroke-miterlimit:10;" d="M 0.5 0.5 L 0.600006 0.5 L 0.600006 0.600006 L 0.5 0.600006 Z " transform="matrix(256,0,0,256,0,0)"/>
<path style="fill-rule:nonzero;fill:rgb(21.289593%,92.116654%,73.213773%);fill-opacity:1;stroke-width:0.01;stroke-linecap:butt;stroke-linejoin:miter;stroke:rgb(0%,0%,0%);stroke-opacity:1;stroke-miterlimit:10;" d="M 0.5 0.600006 L 0.600006 0.600006 L 0.600006 0.700012 L 0.5 0.700012 Z " transform="matrix(256,0,0,256,0,0)"/>
<path style="fill-rule:nonzero;fill:rgb(97.843206%,15.894328%,80.617975%);fill-opacity:1;stroke-width:0.01;stroke-linecap:butt;stroke-linejoin:miter;stroke:rgb(0%,0%,0%);stroke-opacity:1;stroke-miterlimit:10;" d="M 0.5 0.699997 L 0.600006 0.699997 L 0.600006 0.800003 L 0.5 0.800003 Z " transform="matrix(256,0,0,256,0,0)"/>
<path style="fill-rule:nonzero;fill:rgb(27.6966%,37.104518%,97.094675%);fill-opacity:1;stroke-width:0.01;stroke-linecap:butt;stroke-linejoin:miter;stroke:rgb(0%,0%,0%);stroke-opacity:1;stroke-miterlimit:10;" d="M 0.5 0.800003 L 0.600006 0.800003 L 0.600006 0.900009 L 0.5 0.900009 Z " transform="matrix(256,0,0,256,0,0)"/>
<path style="fill-rule:nonzero;fill:rgb(70.962309%,11.18138%,57.310637%);fill-opacity:1;stroke-width:0.01;stroke-linecap:butt;stroke-linejoin:miter;stroke:rgb(0%,0%,0%);stroke-opacity:1;stroke-miterlimit:10;" d="M 0.5 0.899994 L 0.600006 0.899994 L 0.600006 1 L 0.5 1 Z " transform="matrix(256,0,0,256,0,0)"/>
<path style="fill-rule:nonzero;fill:rgb(21.969832%,8.987807%,18.64913%);fill-opacity:1;stroke-width:0.01;stroke-linecap:butt;stroke-linejoin:miter;stroke:rgb(0%,0%,0%);stroke-opacity:1;stroke-miterlimit:10;" d="M 0.600006 0 L 0.700012 0 L 0.700012 0.100006 L 0.600006 0.100006 Z " transform="matrix(256,0,0,256,0,0)"/>
<path style="fill-rule:nonzero;fill:rgb(68.903528%,5.98623%,50.078506%);fill-opacity:1;stroke-width:0.01;stroke-linecap:butt;stroke-linejoin:miter;stroke:rgb(0%,0%,0%);stroke-opacity:1;stroke-miterlimit:10;" d="M 0.600006 0.100006 L 0.700012 0.100006 L 0.700012 0.200012 L 0.600006 0.200012 Z " transform="matrix(256,0,0,256,0,0)"/>
<path style="fill-rule:nonzero;fill:rgb(9.111648%,13.181567%,69.330383%);fill-opacity:1;stroke-width:0.01;stroke-linecap:butt;stroke-linejoin:miter;stroke:rgb(0%,0%,0%);stroke-opacity:1;stroke-miterlimit:10;" d="M 0.600006 0.199997 L 0.700012 0.199997 L 0.700012 0.300003 L 0.600006 0.300003 Z " transform="matrix(256,0,0,256,0,0)"/>
<path style="fill-rule:nonzero;fill:rgb(29.200633%,66.147994%,56.981344%);fill-opacity:1;stroke-width:0.01;stroke-linecap:butt;stroke-linejoin:miter;stroke:rgb(0%,0%,0%);stroke-opacity:1;stroke-miterlimit:10;" d="M 0.600006 0.300003 L 0.700012 0.300003 L 0.700012 0.400009 L 0.600006 0.400009 Z " transform="matrix(256,0,0,256,0,0)"/>
<path style="fill-rule:nonzero;fill:rgb(53.934217%,68.403872%,82.853939%);fill-opacity:1;stroke-width:0.01;stroke-linecap:butt;stroke-linejoin:miter;stroke:rgb(0%,0%,0%);stroke-opacity:1;stroke-miterlimit:10;" d="M 0.600006 0.399994 L 0.700012 0.399994 L 0.700012 0.5 L 0.600006 0.5 Z " transform="matrix(256,0,0,256,0,0)"/>
<path style="fill-rule:nonzero;fill:rgb(0.448365%,35.948579%,98.367516%);fill-opacity:1;stroke-width:0.01;stroke-linecap:butt;stroke-linejoin:miter;stroke:rgb(0%,0%,0%);stroke-opacity:1;stroke-miterlimit:10;" d="M 0.600006 0.5 L 0.700012 0.5 L 0.700012 0.600006 L 0.600006 0.600006 Z " transform="matrix(256,0,0,256,0,0)"/>
<path style="fill-rule:nonzero;fill:rgb(61.318619%,52.070236%,60.585398%);fill-opacity:1;stroke-width:0.01;stroke-linecap:butt;stroke-linejoin:miter;stroke:rgb(0%,0%,0%);stroke-opacity:1;stroke-miterlimit:10;" d="M 0.600006 0.600006 L 0.700012 0.600006 L 0.700012 0.700012 L 0.600006 0.700012 Z " transform="matrix(256,0,0,256,0,0)"/>
<path style="fill-rule:nonzero;fill:rgb(11.27264%,4.337627%,1.699621%);fill-opacity:1;stroke-width:0.01;stroke-linecap:butt;stroke-linejoin:miter;stroke:rgb(0%,0%,0%);stroke-opacity:1;stroke-miterlimit:10;" d="M 0.600006 0.699997 L 0.700012 0.699997 L 0.700012 0.800003 L 0.600006 0.800003 Z " transform="matrix(256,0,0,256,0,0)"/>
<path style="fill-rule:nonzero;fill:rgb(34.758773%,28.158002%,34.684821%);fill-opacity:1;stroke-width:0.01;stroke-linecap:butt;stroke-linejoin:miter;stroke:rgb(0%,0%,0%);stroke-opacity:1;stroke-miterlimit:10;" d="M 0.600006 0.800003 L 0.700012 0.800003 L 0.700012 0.900009 L 0.600006 0.900009 Z " transform="matrix(256,0,0,256,0,0)"/>
<path style="fill-rule:nonzero;fill:rgb(72.557857%,34.818517%,90.447196%);fill-opacity:1;stroke-width:0.01;stroke-linecap:butt;stroke-linejoin:miter;stroke:rgb(0%,0%,0%);stroke-opacity:1;stroke-miterlimit:10;" d="M 0.600006 0.899994 L 0.700012 0.899994 L 0.700012 1 L 0.600006 1 Z " transform="matrix(256,0,0,256,0,0)"/>
<path style="fill-rule:nonzero;fill:rgb(33.694916%,75.981293%,37.293092%);fill-opacity:1;stroke-width:0.01;stroke-linecap:butt;stroke-linejoin:miter;stroke:rgb(0%,0%,0%);stroke-opacity:1;stroke-miterlimit:10;" d="M 0.699997 0 L 0.800003 0 L 0.800003 0.100006 L 0.699997 0.100006 Z " transform="matrix(256,0,0,256,0,0)"/>
<path style="fill-rule:nonzero;fill:rgb(9.777103%,78.875608%,66.619407%);fill-opacity:1;stroke-width:0.01;stroke-linecap:butt;stroke-linejoin:miter;stroke:rgb(0%,0%,0%);stroke-opacity:1;stroke-miterlimit:10;" d="M 0.699997 0.100006 L 0.800003 0.100006 L 0.800003 0.200012 L 0.699997 0.200012 Z " transform="matrix(256,0,0,256,0,0)"/>
<path style="fill-rule:nonzero;fill:rgb(7.493452%,83.163642%,43.451281%);fill-opacity:1;stroke-width:0.01;stroke-linecap:butt;stroke-linejoin:miter;stroke:rgb(0%,0%,0%);stroke-opacity:1;stroke-miterlimit:10;" d="M 0.699997 0.199997 L 0.800003 0.199997 L 0.800003 0.300003 L 0.699997 0.300003 Z " transform="matrix(256,0,0,256,0,0)"/>
<path style="fill-rule:nonzero;fill:rgb(15.536449%,65.632732%,23.388439%);fill-opacity:1;stroke-width:0.01;stroke-linecap:butt;stroke-linejoin:miter;stroke:rgb(0%,0%,0%);stroke-opacity:1;stroke-miterlimit:10;" d="M 0.699997 0.300003 L 0.800003 0.300003 L 0.800003 0.400009 L 0.699997 0.400009 Z " transform="matrix(256,0,0,256,0,0)"/>
<path style="fill-rule:nonzero;fill:rgb(22.234841%,84.888527%,29.064596%);fill-opacity:1;stroke-width:0.01;stroke-linecap:butt;stroke-linejoin:miter;stroke:rgb(0%,0%,0%);stroke-opacity:1;stroke-miterlimit:10;" d="M 0.699997 0.399994 L 0.800003 0.399994 L 0.800003 0.5 L 0.699997 0.5 Z " transform="matrix(256,0,0,256,0,0)"/>
<path style="fill-rule:nonzero;fill:rgb(34.887204%,2.629468%,84.840286%);fill-opacity:1;stroke-width:0.01;stroke-linecap:butt;stroke-linejoin:miter;stroke:rgb(0%,0%,0%);stroke-opacity:1;stroke-miterlimit:10;" d="M 0.699997 0.5 L 0.800003 0.5 L 0.800003 0.600006 L 0.699997 0.600006 Z " transform="matrix(256,0,0,256,0,0)"/>
<path style="fill-rule:nonzero;fill:rgb(12.862855%,64.735476%,52.763566%);fill-opacity:1;stroke-width:0.01;stroke-linecap:butt;stroke-linejoin:miter;stroke:rgb(0%,0%,0%);stroke-opacity:1;stroke-miterlimit:10;" d="M 0.699997 0.600006 L 0.800003 0.600006 L 0.800003 0.700012 L 0.699997 0.700012 Z " transform="matrix(256,0,0,256,0,0)"/>
<path style="fill-rule:nonzero;fill:rgb(85.31626%,11.232603%,35.949724%);fill-opacity:1;stroke-width:0.01;stroke-linecap:butt;stroke-linejoin:miter;stroke:rgb(0%,0%,0%);stroke-opacity:1;stroke-miterlimit:10;" d="M 0.699997 0.699997 L 0.800003 0.699997 L 0.800003 0.800003 L 0.699997 0.800003 Z " transform="matrix(256,0,0,256,0,0)"/>
<path style="fill-rule:nonzero;fill:rgb(65.248446%,64.262511%,40.774523%);fill-opacity:1;stroke-width:0.01;stroke-linecap:butt;stroke-linejoin:miter;stroke:rgb(0%,0%,0%);stroke-opacity:1;stroke-miterlimit:10;" d="M 0.699997 0.800003 L 0.800003 0.800003 L 0.800003 0.900009 L 0.699997 0.900009 Z " transform="matrix(256,0,0,256,0,0)"/>
<path style="fill-rule:nonzero;fill:rgb(4.317869%,92.621971%,9.686762%);fill-opacity:1;stroke-width:0.01;stroke-linecap:butt;stroke-linejoin:miter;stroke:rgb(0%,0%,0%);stroke-opacity:1;stroke-miterlimit:10;" d="M 0.699997 0.899994 L 0.800003 0.899994 L 0.800003 1 L 0.699997 1 Z " transform="matrix(256,0,0,256,0,0)"/>
<path style="fill-rule:nonzero;fill:rgb(77.753478%,14.579147%,38.496233%);fill-opacity:1;stroke-width:0.01;stroke-linecap:butt;stroke-linejoin:miter;stroke:rgb(0%,0%,0%);stroke-opacity:1;stroke-miterlimit:10;" d="M 0.800003 0 L 0.900009 0 L 0.900009 0.100006 L 0.800003 0.100006 Z " transform="matrix(256,0,0,256,0,0)"/>
<path style="fill-rule:nonzero;fill:rgb(71.604298%,76.755386%,44.58841%);fill-opacity:1;stroke-width:0.01;stroke-linecap:butt;stroke-linejoin:miter;stroke:rgb(0%,0%,0%);stroke-opacity:1;stroke-miterlimit:10;" d="M 0.800003 0.100006 L 0.900009 0.100006 L 0.900009 0.200012 L 0.800003 0.200012 Z " transform="matrix(256,0,0,256,0,0)"/>
<path style="fill-rule:nonzero;fill:rgb(16.249978%,89.926513%,95.305689%);fill-opacity:1;stroke-width:0.01;stroke-linecap:butt;stroke-linejoin:miter;stroke:rgb(0%,0%,0%);stroke-opacity:1;stroke-miterlimit:10;" d="M 0.800003 0.199997 L 0.900009 0.199997 L 0.900009 0.300003 L 0.800003 0.300003 Z " transform="matrix(256,0,0,256,0,0)"/>
<path style="fill-rule:nonzero;fill:rgb(29.21364%,90.708422%,99.748598%);fill-opacity:1;stroke-width:0.01;stroke-linecap:butt;stroke-linejoin:miter;stroke:rgb(0%,0%,0%);stroke-opacity:1;stroke-miterlimit:10;" d="M 0.800003 0.300003 L 0.900009 0.300003 L 0.900009 0.400009 L 0.800003 0.400009 Z " transform="matrix(256,0,0,256,0,0)"/>
<path style="fill-rule:nonzero;fill:rgb(5.686021%,35.828306%,77.166816%);fill-opacity:1;stroke-width:0.01;stroke-linecap:butt;stroke-linejoin:miter;stroke:rgb(0%,0%,0%);stroke-opacity:1;stroke-miterlimit:10;" d="M 0.800003 0.399994 L 0.900009 0.399994 L 0.900009 0.5 L 0.800003 0.5 Z " transform="matrix(256,0,0,256,0,0)"/>
<path style="fill-rule:nonzero;fill:rgb(0.791503%,50.252801%,47.232271%);fill-opacity:1;stroke-width:0.01;stroke-linecap:butt;stroke-linejoin:miter;stroke:rgb(0%,0%,0%);stroke-opacity:1;stroke-miterlimit:10;" d="M 0.800003 0.5 L 0.900009 0.5 L 0.900009 0.600006 L 0.800003 0.600006 Z " transform="matrix(256,0,0,256,0,0)"/>
<path style="fill-rule:nonzero;fill:rgb(91.690579%,79.420231%,8.899316%);fill-opacity:1;stroke-width:0.01;stroke-linecap:butt;stroke-linejoin:miter;stroke:rgb(0%,0%,0%);stroke-opacity:1;stroke-miterlimit:10;" d="M 0.800003 0.600006 L 0.900009 0.600006 L 0.900009 0.700012 L 0.800003 0.700012 Z " transform="matrix(256,0,0,256,0,0)"/>
<path style="fill-rule:nonzero;fill:rgb(84.79772%,95.768442%,56.639794%);fill-opacity:1;stroke-width:0.01;stroke-linecap:butt;stroke-linejoin:miter;stroke:rgb(0%,0%,0%);stroke-opacity:1;stroke-miterlimit:10;" d="M 0.800003 0.699997 L 0.900009 0.699997 L 0.900009 0.800003 L 0.800003 0.800003 Z " transform="matrix(256,0,0,256,0,0)"/>
<path style="fill-rule:nonzero;fill:rgb(23.035834%,2.700794%,22.794627%);fill-opacity:1;stroke-width:0.01;stroke-linecap:butt;stroke-linejoin:miter;stroke:rgb(0%,0%,0%);stroke-opacity:1;stroke-miterlimit:10;" d="M 0.800003 0.800003 L 0.900009 0.800003 L 0.900009 0.900009 L 0.800003 0.900009 Z " transform="matrix(256,0,0,256,0,0)"/>
<path style="fill-rule:nonzero;fill:rgb(1.462493%,98.783149%,79.995377%);fill-opacity:1;stroke-width:0.01;stroke-linecap:butt;stroke-linejoin:miter;stroke:rgb(0%,0%,0%);stroke-opacity:1;stroke-miterlimit:10;" d="M 0.800003 0.899994 L 0.900009 0.899994 L 0.900009 1 L 0.800003 1 Z " transform="matrix(256,0,0,256,0,0)"/>
<path style="fill-rule:nonzero;fill:rgb(65.531626%,15.338041%,84.613862%);fill-opacity:1;stroke-width:0.01;stroke-linecap:butt;stroke-linejoin:miter;stroke:rgb(0%,0%,0%);stroke-opacity:1;stroke-miterlimit:10;" d="M 0.899994 0 L 1 0 L 1 0.100006 L 0.899994 0.100006 Z " transform="matrix(256,0,0,256,0,0)"/>
<path style="fill-rule:nonzero;fill:rgb(90.322974%,55.516415%,59.694709%);fill-opacity:1;stroke-width:0.01;stroke-linecap:butt;stroke-linejoin:miter;stroke:rgb(0%,0%,0%);stroke-opacity:1;stroke-miterlimit:10;" d="M 0.899994 0.100006 L 1 0.100006 L 1 0.200012 L 0.899994 0.200012 Z " transform="matrix(256,0,0,256,0,0)"/>
<path style="fill-rule:nonzero;fill:rgb(55.86929%,79.517199%,0.348139%);fill-opacity:1;stroke-width:0.01;stroke-linecap:butt;stroke-linejoin:miter;stroke:rgb(0%,0%,0%);stroke-opacity:1;stroke-miterlimit:10;" d="M 0.899994 0.199997 L 1 0.199997 L 1 0.300003 L 0.899994 0.300003 Z " transform="matrix(256,0,0,256,0,0)"/>
<path style="fill-rule:nonzero;fill:rgb(93.419652%,5.437752%,46.075725%);fill-opacity:1;stroke-width:0.01;stroke-linecap:butt;stroke-linejoin:miter;stroke:rgb(0%,0%,0%);stroke-opacity:1;stroke-miterlimit:10;" d="M 0.899994 0.300003 L 1 0.300003 L 1 0.400009 L 0.899994 0.400009 Z " transform="matrix(256,0,0,256,0,0)"/>
<path style="fill-rule:nonzero;fill:rgb(67.820553%,52.315111%,88.449818%);fill-opacity:1;stroke-width:0.01;stroke-linecap:butt;stroke-linejoin:miter;stroke:rgb(0%,0%,0%);stroke-opacity:1;stroke-miterlimit:10;" d="M 0.899994 0.399994 L 1 0.399994 L 1 0.5 L 0.899994 0.5 Z " transform="matrix(256,0,0,256,0,0)"/>
<path style="fill-rule:nonzero;fill:rgb(39.935991%,3.833362%,78.948776%);fill-opacity:1;stroke-width:0.01;stroke-linecap:butt;stroke-linejoin:miter;stroke:rgb(0%,0%,0%);stroke-opacity:1;stroke-miterlimit:10;" d="M 0.899994 0.5 L 1 0.5 L 1 0.600006 L 0.899994 0.600006 Z " transform="matrix(256,0,0,256,0,0)"/>
<path style="fill-rule:nonzero;fill:rgb(21.361136%,0.646256%,57.090264%);fill-opacity:1;stroke-width:0.01;stroke-linecap:butt;stroke-linejoin:miter;stroke:rgb(0%,0%,0%);stroke-opacity:1;stroke-miterlimit:10;" d="M 0.899994 0.600006 L 1 0.600006 L 1 0.700012 L 0.899994 0.700012 Z " transform="matrix(256,0,0,256,0,0)"/>
<path style="fill-rule:nonzero;fill:rgb(99.738401%,83.891456%,40.503889%);fill-opacity:1;stroke-width:0.01;stroke-linecap:butt;stroke-linejoin:miter;stroke:rgb(0%,0%,0%);stroke-opacity:1;stroke-miterlimit:10;" d="M 0.899994 0.699997 L 1 0.699997 L 1 0.800003 L 0.899994 0.800003 Z " transform="matrix(256,0,0,256,0,0)"/>
<path style="fill-rule:nonzero;fill:rgb(44.121888%,68.474047%,79.793157%);fill-opacity:1;stroke-width:0.01;stroke-linecap:butt;stroke-linejoin:miter;stroke:rgb(0%,0%,0%);stroke-opacity:1;stroke-miterlimit:10;" d="M 0.899994 0.800003 L 1 0.800003 L 1 0.900009 L 0.899994 0.900009 Z " transform="matrix(256,0,0,256,0,0)"/>
<path style="fill-rule:nonzero;fill:rgb(6.55102%,41.189411%,47.733031%);fill-opacity:1;stroke-width:0.01;stroke-linecap:butt;stroke-linejoin:miter;stroke:rgb(0%,0%,0%);stroke-opacity:1;stroke-miterlimit:10;" d="M 0.899994 0.899994 L 1 0.899994 L 1 1 L 0.899994 1 Z " transform="matrix(256,0,0,256,0,0)"/>
</g>
</svg>
