<?xml version="1.0" encoding="UTF-8"?>
<svg xmlns="http://www.w3.org/2000/svg" xmlns:xlink="http://www.w3.org/1999/xlink" width="256pt" height="256pt" viewBox="0 0 256 256" version="1.1">
<g id="surface1">
<path style=" stroke:none;fill-rule:nonzero;fill:rgb(100%,100%,100%);fill-opacity:1;" d="M 0 0 L 1 0 L 1 1 L 0 1 Z "/>
<path style="fill:none;stroke-width:3;stroke-linecap:butt;stroke-linejoin:miter;stroke:rgb(0%,0%,0%);stroke-opacity:1;stroke-miterlimit:10;" d="M 120 0 C 120 46.390625 66.273438 84 0 84 C -66.273438 84 -120 46.390625 -120 0 C -120 -46.390625 -66.273438 -84 0 -84 C 66.273438 -84 120 -46.390625 120 0 " transform="matrix(1,0,0,1,128,128)"/>
<path style="fill:none;stroke-width:3;stroke-linecap:butt;stroke-linejoin:miter;stroke:rgb(0%,0%,0%);stroke-opacity:1;stroke-miterlimit:10;" d="M 120 0 C 120 66.273438 66.273438 120 0 120 C -66.273438 120 -120 66.273438 -120 0 C -120 -66.273438 -66.273438 -120 0 -120 C 66.273438 -120 120 -66.273438 120 0 " transform="matrix(1,0,0,1,128,128)"/>
</g>
</svg>
