<?xml version="1.0" encoding="UTF-8" standalone="no"?>
<!DOCTYPE svg PUBLIC "-//W3C//DTD SVG 1.0//EN"
 "http://www.w3.org/TR/2001/REC-SVG-20010904/DTD/svg10.dtd" [
 <!ATTLIST svg xmlns:xlink CDATA #FIXED "http://www.w3.org/1999/xlink">
]>
<!-- Generated by dot version 2.8 (Tue Dec  9 22:37:01 UTC 2008)
     For user: (gremy) Jeremie,,, -->
<!-- Title: osg_shape Pages: 1 -->
<svg width="222pt" height="332pt"
 viewBox = "0 0 222 332"
 xmlns="http://www.w3.org/2000/svg" xmlns:xlink="http://www.w3.org/1999/xlink">
<g id="graph0" class="graph" style="font-family:Times-Roman;font-size:14.00;">
<title>osg_shape</title>
<polygon style="fill:white;stroke:white;" points="-2,334 -2,-2 224,-2 224,334 -2,334"/>
<!-- Group -->
<g id="node1" class="node"><title>Group</title>
<ellipse style="fill:none;stroke:black;" cx="72" cy="22" rx="31" ry="18"/>
<text text-anchor="middle" x="72" y="27">Group</text>
</g>
<!-- Geode -->
<g id="node3" class="node"><title>Geode</title>
<ellipse style="fill:none;stroke:black;" cx="72" cy="166" rx="31" ry="18"/>
<text text-anchor="middle" x="72" y="171">Geode</text>
</g>
<!-- Group&#45;&gt;Geode -->
<g id="edge2" class="edge"><title>Group&#45;&gt;Geode</title>
<path style="fill:none;stroke:black;" d="M57,38C48,48 38,62 33,76 29,92 29,97 33,112 37,123 43,134 50,142"/>
<polygon style="fill:black;stroke:black;" points="53,140 57,150 48,145 53,140"/>
</g>
<!-- PositionAttitudeTransform -->
<g id="node7" class="node"><title>PositionAttitudeTransform</title>
<ellipse style="fill:none;stroke:black;" cx="130" cy="94" rx="88" ry="18"/>
<text text-anchor="middle" x="130" y="99">PositionAttitudeTransform</text>
</g>
<!-- Group&#45;&gt;PositionAttitudeTransform -->
<g id="edge6" class="edge"><title>Group&#45;&gt;PositionAttitudeTransform</title>
<path style="fill:none;stroke:black;" d="M85,38C92,47 101,58 108,68"/>
<polygon style="fill:black;stroke:black;" points="111,66 115,76 106,71 111,66"/>
</g>
<!-- ShapeDrawable -->
<g id="node4" class="node"><title>ShapeDrawable</title>
<ellipse style="fill:none;stroke:black;" cx="72" cy="238" rx="57" ry="18"/>
<text text-anchor="middle" x="72" y="243">ShapeDrawable</text>
</g>
<!-- Geode&#45;&gt;ShapeDrawable -->
<g id="edge3" class="edge"><title>Geode&#45;&gt;ShapeDrawable</title>
<path style="fill:none;stroke:black;" d="M72,184C72,192 72,201 72,210"/>
<polygon style="fill:black;stroke:black;" points="76,210 72,220 69,210 76,210"/>
</g>
<!-- Box -->
<g id="node5" class="node"><title>Box</title>
<ellipse style="fill:none;stroke:black;" cx="72" cy="310" rx="27" ry="18"/>
<text text-anchor="middle" x="72" y="315">Box</text>
</g>
<!-- ShapeDrawable&#45;&gt;Box -->
<g id="edge4" class="edge"><title>ShapeDrawable&#45;&gt;Box</title>
<path style="fill:none;stroke:black;" d="M72,256C72,264 72,273 72,282"/>
<polygon style="fill:black;stroke:black;" points="76,282 72,292 69,282 76,282"/>
</g>
<!-- PositionAttitudeTransform&#45;&gt;Geode -->
<g id="edge7" class="edge"><title>PositionAttitudeTransform&#45;&gt;Geode</title>
<path style="fill:none;stroke:black;" d="M116,112C108,121 99,131 92,141"/>
<polygon style="fill:black;stroke:black;" points="94,144 85,149 89,139 94,144"/>
</g>
</g>
</svg>
