<?xml version="1.0" encoding="UTF-8" standalone="no"?>
<!DOCTYPE svg PUBLIC "-//W3C//DTD SVG 1.1//EN"
 "http://www.w3.org/Graphics/SVG/1.1/DTD/svg11.dtd">
<!-- Generated by graphviz version 2.26.3 (20100126.1600)
 -->
<!-- Title: osg_shape Pages: 1 -->
<svg width="284pt" height="342pt"
 viewBox="0.00 0.00 284.00 342.00" xmlns="http://www.w3.org/2000/svg" xmlns:xlink="http://www.w3.org/1999/xlink">
<g id="graph1" class="graph" transform="scale(1 1) rotate(0) translate(4 338)">
<title>osg_shape</title>
<polygon fill="white" stroke="white" points="-4,5 -4,-338 281,-338 281,5 -4,5"/>
<!-- Group -->
<g id="node1" class="node"><title>Group</title>
<ellipse fill="none" stroke="black" cx="138" cy="-315" rx="41.2167" ry="18.3848"/>
<text text-anchor="middle" x="138" y="-311.4" font-family="Times Roman,serif" font-size="14.00">Group</text>
</g>
<!-- PositionAttitudeTransform -->
<g id="node3" class="node"><title>PositionAttitudeTransform</title>
<ellipse fill="none" stroke="black" cx="138" cy="-241" rx="138.093" ry="18.3848"/>
<text text-anchor="middle" x="138" y="-237.4" font-family="Times Roman,serif" font-size="14.00">PositionAttitudeTransform</text>
</g>
<!-- Group&#45;&gt;PositionAttitudeTransform -->
<g id="edge2" class="edge"><title>Group&#45;&gt;PositionAttitudeTransform</title>
<path fill="none" stroke="black" d="M138,-296.327C138,-288.264 138,-278.648 138,-269.711"/>
<polygon fill="black" stroke="black" points="141.5,-269.667 138,-259.667 134.5,-269.667 141.5,-269.667"/>
</g>
<!-- Geode -->
<g id="node4" class="node"><title>Geode</title>
<ellipse fill="none" stroke="black" cx="138" cy="-167" rx="43.1335" ry="18.3848"/>
<text text-anchor="middle" x="138" y="-163.4" font-family="Times Roman,serif" font-size="14.00">Geode</text>
</g>
<!-- PositionAttitudeTransform&#45;&gt;Geode -->
<g id="edge3" class="edge"><title>PositionAttitudeTransform&#45;&gt;Geode</title>
<path fill="none" stroke="black" d="M138,-222.327C138,-214.264 138,-204.648 138,-195.711"/>
<polygon fill="black" stroke="black" points="141.5,-195.667 138,-185.667 134.5,-195.667 141.5,-195.667"/>
</g>
<!-- ShapeDrawable -->
<g id="node5" class="node"><title>ShapeDrawable</title>
<ellipse fill="none" stroke="black" cx="138" cy="-93" rx="89.0955" ry="18.3848"/>
<text text-anchor="middle" x="138" y="-89.4" font-family="Times Roman,serif" font-size="14.00">ShapeDrawable</text>
</g>
<!-- Geode&#45;&gt;ShapeDrawable -->
<g id="edge4" class="edge"><title>Geode&#45;&gt;ShapeDrawable</title>
<path fill="none" stroke="black" d="M138,-148.327C138,-140.264 138,-130.648 138,-121.711"/>
<polygon fill="black" stroke="black" points="141.5,-121.667 138,-111.667 134.5,-121.667 141.5,-121.667"/>
</g>
<!-- Box -->
<g id="node6" class="node"><title>Box</title>
<ellipse fill="none" stroke="black" cx="138" cy="-19" rx="29.1951" ry="18.3848"/>
<text text-anchor="middle" x="138" y="-15.4" font-family="Times Roman,serif" font-size="14.00">Box</text>
</g>
<!-- ShapeDrawable&#45;&gt;Box -->
<g id="edge5" class="edge"><title>ShapeDrawable&#45;&gt;Box</title>
<path fill="none" stroke="black" d="M138,-74.3267C138,-66.2639 138,-56.6477 138,-47.7115"/>
<polygon fill="black" stroke="black" points="141.5,-47.6673 138,-37.6674 134.5,-47.6674 141.5,-47.6673"/>
</g>
</g>
</svg>
