<?xml version="1.0" encoding="UTF-8" standalone="no"?>
<!DOCTYPE svg PUBLIC "-//W3C//DTD SVG 1.1//EN"
 "http://www.w3.org/Graphics/SVG/1.1/DTD/svg11.dtd">
<!-- Generated by graphviz version 2.38.0 (20140413.2041)
 -->
<!-- Title: osg_shape Pages: 1 -->
<svg width="837pt" height="260pt"
 viewBox="0.00 0.00 837.24 260.00" xmlns="http://www.w3.org/2000/svg" xmlns:xlink="http://www.w3.org/1999/xlink">
<g id="graph0" class="graph" transform="scale(1 1) rotate(0) translate(4 256)">
<title>osg_shape</title>
<polygon fill="white" stroke="none" points="-4,4 -4,-256 833.239,-256 833.239,4 -4,4"/>
<!-- Geode1 -->
<g id="node1" class="node"><title>Geode1</title>
<ellipse fill="none" stroke="black" cx="131.294" cy="-162" rx="33.5952" ry="18"/>
<text text-anchor="middle" x="131.294" y="-158.3" font-family="Times,serif" font-size="14.00">Geode</text>
</g>
<!-- ShapeDrawable1 -->
<g id="node6" class="node"><title>ShapeDrawable1</title>
<ellipse fill="none" stroke="black" cx="66.2941" cy="-90" rx="66.0889" ry="18"/>
<text text-anchor="middle" x="66.2941" y="-86.3" font-family="Times,serif" font-size="14.00">ShapeDrawable</text>
</g>
<!-- Geode1&#45;&gt;ShapeDrawable1 -->
<g id="edge2" class="edge"><title>Geode1&#45;&gt;ShapeDrawable1</title>
<path fill="none" stroke="black" d="M116.869,-145.465C108.643,-136.606 98.1514,-125.308 88.8592,-115.301"/>
<polygon fill="black" stroke="black" points="91.4137,-112.908 82.0444,-107.962 86.2841,-117.671 91.4137,-112.908"/>
</g>
<!-- Geode2 -->
<g id="node2" class="node"><title>Geode2</title>
<ellipse fill="none" stroke="black" cx="249.294" cy="-162" rx="33.5952" ry="18"/>
<text text-anchor="middle" x="249.294" y="-158.3" font-family="Times,serif" font-size="14.00">Geode</text>
</g>
<!-- ShapeDrawable2 -->
<g id="node7" class="node"><title>ShapeDrawable2</title>
<ellipse fill="none" stroke="black" cx="217.294" cy="-90" rx="66.0889" ry="18"/>
<text text-anchor="middle" x="217.294" y="-86.3" font-family="Times,serif" font-size="14.00">ShapeDrawable</text>
</g>
<!-- Geode2&#45;&gt;ShapeDrawable2 -->
<g id="edge5" class="edge"><title>Geode2&#45;&gt;ShapeDrawable2</title>
<path fill="none" stroke="black" d="M241.711,-144.411C237.979,-136.249 233.395,-126.22 229.21,-117.065"/>
<polygon fill="black" stroke="black" points="232.386,-115.596 225.046,-107.956 226.02,-118.506 232.386,-115.596"/>
</g>
<!-- Geode3 -->
<g id="node3" class="node"><title>Geode3</title>
<ellipse fill="none" stroke="black" cx="377.294" cy="-162" rx="33.5952" ry="18"/>
<text text-anchor="middle" x="377.294" y="-158.3" font-family="Times,serif" font-size="14.00">Geode</text>
</g>
<!-- ShapeDrawable3 -->
<g id="node8" class="node"><title>ShapeDrawable3</title>
<ellipse fill="none" stroke="black" cx="368.294" cy="-90" rx="66.0889" ry="18"/>
<text text-anchor="middle" x="368.294" y="-86.3" font-family="Times,serif" font-size="14.00">ShapeDrawable</text>
</g>
<!-- Geode3&#45;&gt;ShapeDrawable3 -->
<g id="edge8" class="edge"><title>Geode3&#45;&gt;ShapeDrawable3</title>
<path fill="none" stroke="black" d="M375.069,-143.697C374.078,-135.983 372.886,-126.712 371.78,-118.112"/>
<polygon fill="black" stroke="black" points="375.24,-117.576 370.493,-108.104 368.297,-118.469 375.24,-117.576"/>
</g>
<!-- Geode4 -->
<g id="node4" class="node"><title>Geode4</title>
<ellipse fill="none" stroke="black" cx="480.294" cy="-162" rx="33.5952" ry="18"/>
<text text-anchor="middle" x="480.294" y="-158.3" font-family="Times,serif" font-size="14.00">Geode</text>
</g>
<!-- ShapeDrawable4 -->
<g id="node9" class="node"><title>ShapeDrawable4</title>
<ellipse fill="none" stroke="black" cx="519.294" cy="-90" rx="66.0889" ry="18"/>
<text text-anchor="middle" x="519.294" y="-86.3" font-family="Times,serif" font-size="14.00">ShapeDrawable</text>
</g>
<!-- Geode4&#45;&gt;ShapeDrawable4 -->
<g id="edge11" class="edge"><title>Geode4&#45;&gt;ShapeDrawable4</title>
<path fill="none" stroke="black" d="M489.537,-144.411C494.132,-136.163 499.789,-126.009 504.933,-116.777"/>
<polygon fill="black" stroke="black" points="508.038,-118.395 509.847,-107.956 501.923,-114.988 508.038,-118.395"/>
</g>
<!-- Geode5 -->
<g id="node5" class="node"><title>Geode5</title>
<ellipse fill="none" stroke="black" cx="600.294" cy="-162" rx="33.5952" ry="18"/>
<text text-anchor="middle" x="600.294" y="-158.3" font-family="Times,serif" font-size="14.00">Geode</text>
</g>
<!-- ShapeDrawable5 -->
<g id="node10" class="node"><title>ShapeDrawable5</title>
<ellipse fill="none" stroke="black" cx="670.294" cy="-90" rx="66.0889" ry="18"/>
<text text-anchor="middle" x="670.294" y="-86.3" font-family="Times,serif" font-size="14.00">ShapeDrawable</text>
</g>
<!-- Geode5&#45;&gt;ShapeDrawable5 -->
<g id="edge14" class="edge"><title>Geode5&#45;&gt;ShapeDrawable5</title>
<path fill="none" stroke="black" d="M615.483,-145.811C624.543,-136.751 636.243,-125.051 646.506,-114.788"/>
<polygon fill="black" stroke="black" points="649.07,-117.174 653.666,-107.628 644.12,-112.224 649.07,-117.174"/>
</g>
<!-- Sphere1 -->
<g id="node11" class="node"><title>Sphere1</title>
<ellipse fill="none" stroke="black" cx="66.2941" cy="-18" rx="35.194" ry="18"/>
<text text-anchor="middle" x="66.2941" y="-14.3" font-family="Times,serif" font-size="14.00">Sphere</text>
</g>
<!-- ShapeDrawable1&#45;&gt;Sphere1 -->
<g id="edge3" class="edge"><title>ShapeDrawable1&#45;&gt;Sphere1</title>
<path fill="none" stroke="black" d="M66.2941,-71.6966C66.2941,-63.9827 66.2941,-54.7125 66.2941,-46.1124"/>
<polygon fill="black" stroke="black" points="69.7942,-46.1043 66.2941,-36.1043 62.7942,-46.1044 69.7942,-46.1043"/>
</g>
<!-- Sphere2 -->
<g id="node12" class="node"><title>Sphere2</title>
<ellipse fill="none" stroke="black" cx="217.294" cy="-18" rx="35.194" ry="18"/>
<text text-anchor="middle" x="217.294" y="-14.3" font-family="Times,serif" font-size="14.00">Sphere</text>
</g>
<!-- ShapeDrawable2&#45;&gt;Sphere2 -->
<g id="edge6" class="edge"><title>ShapeDrawable2&#45;&gt;Sphere2</title>
<path fill="none" stroke="black" d="M217.294,-71.6966C217.294,-63.9827 217.294,-54.7125 217.294,-46.1124"/>
<polygon fill="black" stroke="black" points="220.794,-46.1043 217.294,-36.1043 213.794,-46.1044 220.794,-46.1043"/>
</g>
<!-- Sphere3 -->
<g id="node13" class="node"><title>Sphere3</title>
<ellipse fill="none" stroke="black" cx="368.294" cy="-18" rx="35.194" ry="18"/>
<text text-anchor="middle" x="368.294" y="-14.3" font-family="Times,serif" font-size="14.00">Sphere</text>
</g>
<!-- ShapeDrawable3&#45;&gt;Sphere3 -->
<g id="edge9" class="edge"><title>ShapeDrawable3&#45;&gt;Sphere3</title>
<path fill="none" stroke="black" d="M368.294,-71.6966C368.294,-63.9827 368.294,-54.7125 368.294,-46.1124"/>
<polygon fill="black" stroke="black" points="371.794,-46.1043 368.294,-36.1043 364.794,-46.1044 371.794,-46.1043"/>
</g>
<!-- Sphere4 -->
<g id="node14" class="node"><title>Sphere4</title>
<ellipse fill="none" stroke="black" cx="519.294" cy="-18" rx="35.194" ry="18"/>
<text text-anchor="middle" x="519.294" y="-14.3" font-family="Times,serif" font-size="14.00">Sphere</text>
</g>
<!-- ShapeDrawable4&#45;&gt;Sphere4 -->
<g id="edge12" class="edge"><title>ShapeDrawable4&#45;&gt;Sphere4</title>
<path fill="none" stroke="black" d="M519.294,-71.6966C519.294,-63.9827 519.294,-54.7125 519.294,-46.1124"/>
<polygon fill="black" stroke="black" points="522.794,-46.1043 519.294,-36.1043 515.794,-46.1044 522.794,-46.1043"/>
</g>
<!-- Box -->
<g id="node16" class="node"><title>Box</title>
<ellipse fill="none" stroke="black" cx="670.294" cy="-18" rx="27" ry="18"/>
<text text-anchor="middle" x="670.294" y="-14.3" font-family="Times,serif" font-size="14.00">Box</text>
</g>
<!-- ShapeDrawable5&#45;&gt;Box -->
<g id="edge15" class="edge"><title>ShapeDrawable5&#45;&gt;Box</title>
<path fill="none" stroke="black" d="M670.294,-71.6966C670.294,-63.9827 670.294,-54.7125 670.294,-46.1124"/>
<polygon fill="black" stroke="black" points="673.794,-46.1043 670.294,-36.1043 666.794,-46.1044 673.794,-46.1043"/>
</g>
<!-- Group -->
<g id="node15" class="node"><title>Group</title>
<ellipse fill="none" stroke="black" cx="428.294" cy="-234" rx="33.2948" ry="18"/>
<text text-anchor="middle" x="428.294" y="-230.3" font-family="Times,serif" font-size="14.00">Group</text>
</g>
<!-- Group&#45;&gt;Geode1 -->
<g id="edge1" class="edge"><title>Group&#45;&gt;Geode1</title>
<path fill="none" stroke="black" d="M398.457,-225.968C344.781,-213.317 231.918,-186.716 171.493,-172.474"/>
<polygon fill="black" stroke="black" points="172.09,-169.019 161.554,-170.132 170.484,-175.833 172.09,-169.019"/>
</g>
<!-- Group&#45;&gt;Geode2 -->
<g id="edge4" class="edge"><title>Group&#45;&gt;Geode2</title>
<path fill="none" stroke="black" d="M402.266,-222.821C371.466,-210.777 320.005,-190.652 285.373,-177.109"/>
<polygon fill="black" stroke="black" points="286.233,-173.687 275.645,-173.305 283.684,-180.207 286.233,-173.687"/>
</g>
<!-- Group&#45;&gt;Geode3 -->
<g id="edge7" class="edge"><title>Group&#45;&gt;Geode3</title>
<path fill="none" stroke="black" d="M416.721,-217.116C410.357,-208.38 402.323,-197.353 395.17,-187.535"/>
<polygon fill="black" stroke="black" points="397.892,-185.328 389.175,-179.307 392.235,-189.45 397.892,-185.328"/>
</g>
<!-- Group&#45;&gt;Geode4 -->
<g id="edge10" class="edge"><title>Group&#45;&gt;Geode4</title>
<path fill="none" stroke="black" d="M440.094,-217.116C446.583,-208.38 454.775,-197.353 462.068,-187.535"/>
<polygon fill="black" stroke="black" points="465.027,-189.422 468.18,-179.307 459.407,-185.247 465.027,-189.422"/>
</g>
<!-- Group&#45;&gt;Geode5 -->
<g id="edge13" class="edge"><title>Group&#45;&gt;Geode5</title>
<path fill="none" stroke="black" d="M454.044,-222.52C483.557,-210.509 532.092,-190.757 565.085,-177.329"/>
<polygon fill="black" stroke="black" points="566.425,-180.563 574.368,-173.551 563.786,-174.079 566.425,-180.563"/>
</g>
<!-- LightSource -->
<g id="node17" class="node"><title>LightSource</title>
<ellipse fill="none" stroke="black" cx="775.294" cy="-162" rx="53.8905" ry="18"/>
<text text-anchor="middle" x="775.294" y="-158.3" font-family="Times,serif" font-size="14.00">LightSource</text>
</g>
<!-- Group&#45;&gt;LightSource -->
<g id="edge16" class="edge"><title>Group&#45;&gt;LightSource</title>
<path fill="none" stroke="black" d="M458.784,-226.849C517.384,-215.028 646.465,-188.988 720.408,-174.072"/>
<polygon fill="black" stroke="black" points="721.352,-177.452 730.462,-172.044 719.968,-170.591 721.352,-177.452"/>
</g>
<!-- Light -->
<g id="node18" class="node"><title>Light</title>
<ellipse fill="none" stroke="black" cx="784.294" cy="-90" rx="29.795" ry="18"/>
<text text-anchor="middle" x="784.294" y="-86.3" font-family="Times,serif" font-size="14.00">Light</text>
</g>
<!-- LightSource&#45;&gt;Light -->
<g id="edge17" class="edge"><title>LightSource&#45;&gt;Light</title>
<path fill="none" stroke="black" d="M777.519,-143.697C778.511,-135.983 779.703,-126.712 780.808,-118.112"/>
<polygon fill="black" stroke="black" points="784.291,-118.469 782.095,-108.104 777.348,-117.576 784.291,-118.469"/>
</g>
</g>
</svg>
