<?xml version="1.0" encoding="UTF-8" standalone="no"?>
<!DOCTYPE svg PUBLIC "-//W3C//DTD SVG 1.1//EN"
 "http://www.w3.org/Graphics/SVG/1.1/DTD/svg11.dtd">
<!-- Generated by graphviz version 2.38.0 (20140413.2041)
 -->
<!-- Title: osg_shape Pages: 1 -->
<svg width="240pt" height="260pt"
 viewBox="0.00 0.00 240.24 260.00" xmlns="http://www.w3.org/2000/svg" xmlns:xlink="http://www.w3.org/1999/xlink">
<g id="graph0" class="graph" transform="scale(1 1) rotate(0) translate(4 256)">
<title>osg_shape</title>
<polygon fill="white" stroke="none" points="-4,4 -4,-256 236.239,-256 236.239,4 -4,4"/>
<!-- Group -->
<g id="node1" class="node"><title>Group</title>
<ellipse fill="none" stroke="black" cx="123.294" cy="-234" rx="33.2948" ry="18"/>
<text text-anchor="middle" x="123.294" y="-230.3" font-family="Times,serif" font-size="14.00">Group</text>
</g>
<!-- Geode -->
<g id="node2" class="node"><title>Geode</title>
<ellipse fill="none" stroke="black" cx="68.2941" cy="-162" rx="33.5952" ry="18"/>
<text text-anchor="middle" x="68.2941" y="-158.3" font-family="Times,serif" font-size="14.00">Geode</text>
</g>
<!-- Group&#45;&gt;Geode -->
<g id="edge1" class="edge"><title>Group&#45;&gt;Geode</title>
<path fill="none" stroke="black" d="M110.814,-217.116C103.782,-208.166 94.8594,-196.81 87.0058,-186.815"/>
<polygon fill="black" stroke="black" points="89.6555,-184.522 80.7251,-178.821 84.1512,-188.847 89.6555,-184.522"/>
</g>
<!-- LightSource -->
<g id="node5" class="node"><title>LightSource</title>
<ellipse fill="none" stroke="black" cx="178.294" cy="-162" rx="53.8905" ry="18"/>
<text text-anchor="middle" x="178.294" y="-158.3" font-family="Times,serif" font-size="14.00">LightSource</text>
</g>
<!-- Group&#45;&gt;LightSource -->
<g id="edge4" class="edge"><title>Group&#45;&gt;LightSource</title>
<path fill="none" stroke="black" d="M135.774,-217.116C142.608,-208.418 151.228,-197.448 158.916,-187.663"/>
<polygon fill="black" stroke="black" points="161.67,-189.823 165.096,-179.797 156.166,-185.498 161.67,-189.823"/>
</g>
<!-- ShapeDrawable -->
<g id="node3" class="node"><title>ShapeDrawable</title>
<ellipse fill="none" stroke="black" cx="66.2941" cy="-90" rx="66.0889" ry="18"/>
<text text-anchor="middle" x="66.2941" y="-86.3" font-family="Times,serif" font-size="14.00">ShapeDrawable</text>
</g>
<!-- Geode&#45;&gt;ShapeDrawable -->
<g id="edge2" class="edge"><title>Geode&#45;&gt;ShapeDrawable</title>
<path fill="none" stroke="black" d="M67.7997,-143.697C67.5793,-135.983 67.3145,-126.712 67.0688,-118.112"/>
<polygon fill="black" stroke="black" points="70.5671,-118 66.7828,-108.104 63.5699,-118.2 70.5671,-118"/>
</g>
<!-- Sphere -->
<g id="node4" class="node"><title>Sphere</title>
<ellipse fill="none" stroke="black" cx="66.2941" cy="-18" rx="35.194" ry="18"/>
<text text-anchor="middle" x="66.2941" y="-14.3" font-family="Times,serif" font-size="14.00">Sphere</text>
</g>
<!-- ShapeDrawable&#45;&gt;Sphere -->
<g id="edge3" class="edge"><title>ShapeDrawable&#45;&gt;Sphere</title>
<path fill="none" stroke="black" d="M66.2941,-71.6966C66.2941,-63.9827 66.2941,-54.7125 66.2941,-46.1124"/>
<polygon fill="black" stroke="black" points="69.7942,-46.1043 66.2941,-36.1043 62.7942,-46.1044 69.7942,-46.1043"/>
</g>
<!-- Light -->
<g id="node6" class="node"><title>Light</title>
<ellipse fill="none" stroke="black" cx="180.294" cy="-90" rx="29.795" ry="18"/>
<text text-anchor="middle" x="180.294" y="-86.3" font-family="Times,serif" font-size="14.00">Light</text>
</g>
<!-- LightSource&#45;&gt;Light -->
<g id="edge5" class="edge"><title>LightSource&#45;&gt;Light</title>
<path fill="none" stroke="black" d="M178.788,-143.697C179.009,-135.983 179.274,-126.712 179.519,-118.112"/>
<polygon fill="black" stroke="black" points="183.018,-118.2 179.805,-108.104 176.021,-118 183.018,-118.2"/>
</g>
</g>
</svg>
